<svg width="36" height="36" viewBox="0 0 36 36" fill="none" xmlns="http://www.w3.org/2000/svg">
<mask id="mask0_215_1725" style="mask-type:alpha" maskUnits="userSpaceOnUse" x="0" y="0" width="36" height="36">
<rect width="36" height="36" fill="#D9D9D9"/>
</mask>
<g mask="url(#mask0_215_1725)">
<path d="M19.5 16.4984V7.49844H22.5V11.3984L30 3.89844L32.1 5.99844L24.6 13.4984H28.5V16.4984H19.5ZM29.925 31.4984C26.8 31.4984 23.7125 30.8172 20.6625 29.4547C17.6125 28.0922 14.8375 26.1609 12.3375 23.6609C9.8375 21.1609 7.90625 18.3859 6.54375 15.3359C5.18125 12.2859 4.5 9.19844 4.5 6.07344C4.5 5.62344 4.65 5.24844 4.95 4.94844C5.25 4.64844 5.625 4.49844 6.075 4.49844H12.15C12.5 4.49844 12.8125 4.61719 13.0875 4.85469C13.3625 5.09219 13.525 5.37344 13.575 5.69844L14.55 10.9484C14.6 11.3484 14.5875 11.6859 14.5125 11.9609C14.4375 12.2359 14.3 12.4734 14.1 12.6734L10.4625 16.3484C10.9625 17.2734 11.5562 18.1672 12.2437 19.0297C12.9312 19.8922 13.6875 20.7234 14.5125 21.5234C15.2875 22.2984 16.1 23.0172 16.95 23.6797C17.8 24.3422 18.7 24.9484 19.65 25.4984L23.175 21.9734C23.4 21.7484 23.6938 21.5797 24.0563 21.4672C24.4188 21.3547 24.775 21.3234 25.125 21.3734L30.3 22.4234C30.65 22.5234 30.9375 22.7047 31.1625 22.9672C31.3875 23.2297 31.5 23.5234 31.5 23.8484V29.9234C31.5 30.3734 31.35 30.7484 31.05 31.0484C30.75 31.3484 30.375 31.4984 29.925 31.4984ZM9.0375 13.4984L11.5125 11.0234L10.875 7.49844H7.5375C7.6625 8.52344 7.8375 9.53594 8.0625 10.5359C8.2875 11.5359 8.6125 12.5234 9.0375 13.4984ZM22.4625 26.9234C23.4375 27.3484 24.4313 27.6859 25.4438 27.9359C26.4563 28.1859 27.475 28.3484 28.5 28.4234V25.1234L24.975 24.4109L22.4625 26.9234Z" fill="white"/>
</g>
</svg>
