<svg width="36" height="36" viewBox="0 0 36 36" fill="currentColor" xmlns="http://www.w3.org/2000/svg">
<mask id="mask0_215_1742" style="mask-type:alpha" maskUnits="userSpaceOnUse" x="0" y="0" width="36" height="36">
<rect width="36" height="36" fill="currentColor"/>
</mask>
<g mask="url(#mask0_215_1742)">
<path d="M19.2008 34.5C17.1508 34.5 15.2258 34.0312 13.4258 33.0938C11.6258 32.1562 10.1508 30.85 9.00078 29.175L1.80078 18.6L2.51328 17.8875C3.01328 17.3625 3.63203 17.0625 4.36953 16.9875C5.10703 16.9125 5.77578 17.0875 6.37578 17.5125L10.5008 20.3625V6C10.5008 5.575 10.6445 5.21875 10.932 4.93125C11.2195 4.64375 11.5758 4.5 12.0008 4.5C12.4258 4.5 12.782 4.64375 13.0695 4.93125C13.357 5.21875 13.5008 5.575 13.5008 6V26.1375L7.95078 22.275L11.5133 27.45C12.3883 28.725 13.5008 29.7188 14.8508 30.4313C16.2008 31.1438 17.6508 31.5 19.2008 31.5C21.7758 31.5 23.9695 30.5938 25.782 28.7812C27.5945 26.9688 28.5008 24.775 28.5008 22.2V7.5C28.5008 7.075 28.6445 6.71875 28.932 6.43125C29.2195 6.14375 29.5758 6 30.0008 6C30.4258 6 30.782 6.14375 31.0695 6.43125C31.357 6.71875 31.5008 7.075 31.5008 7.5V22.2C31.5008 25.625 30.307 28.5313 27.9195 30.9188C25.532 33.3063 22.6258 34.5 19.2008 34.5ZM16.5008 18V3C16.5008 2.575 16.6445 2.21875 16.932 1.93125C17.2195 1.64375 17.5758 1.5 18.0008 1.5C18.4258 1.5 18.782 1.64375 19.0695 1.93125C19.357 2.21875 19.5008 2.575 19.5008 3V18H16.5008ZM22.5008 18V4.5C22.5008 4.075 22.6445 3.71875 22.932 3.43125C23.2195 3.14375 23.5758 3 24.0008 3C24.4258 3 24.782 3.14375 25.0695 3.43125C25.357 3.71875 25.5008 4.075 25.5008 4.5V18H22.5008Z" fill="currentColor"/>
</g>
</svg>
