<svg width="36" height="36" viewBox="0 0 36 36" fill="currentColor" xmlns="http://www.w3.org/2000/svg">
<mask id="mask0_215_1736" style="mask-type:alpha" maskUnits="userSpaceOnUse" x="0" y="0" width="36" height="36">
<rect width="36" height="36" fill="#D9D9D9"/>
</mask>
<g mask="url(#mask0_215_1736)">
<path d="M16.5 31.5C14 31.5 11.875 30.625 10.125 28.875C8.375 27.125 7.5 25 7.5 22.5V13.5L15 21L12.9 23.1375L10.5 20.7375V22.5C10.5 24.15 11.0875 25.5625 12.2625 26.7375C13.4375 27.9125 14.85 28.5 16.5 28.5C18.15 28.5 19.5625 27.9125 20.7375 26.7375C21.9125 25.5625 22.5 24.15 22.5 22.5V17.7375C21.6 17.3875 20.875 16.8313 20.325 16.0688C19.775 15.3063 19.5 14.45 19.5 13.5C19.5 12.55 19.775 11.6938 20.325 10.9312C20.875 10.1687 21.6 9.6125 22.5 9.2625V3H25.5V9.2625C26.4 9.6125 27.125 10.1687 27.675 10.9312C28.225 11.6938 28.5 12.55 28.5 13.5C28.5 14.45 28.225 15.3125 27.675 16.0875C27.125 16.8625 26.4 17.4125 25.5 17.7375V22.5C25.5 25 24.625 27.125 22.875 28.875C21.125 30.625 19 31.5 16.5 31.5ZM24 15C24.425 15 24.7812 14.8562 25.0688 14.5688C25.3563 14.2812 25.5 13.925 25.5 13.5C25.5 13.075 25.3563 12.7188 25.0688 12.4312C24.7812 12.1438 24.425 12 24 12C23.575 12 23.2188 12.1438 22.9313 12.4312C22.6438 12.7188 22.5 13.075 22.5 13.5C22.5 13.925 22.6438 14.2812 22.9313 14.5688C23.2188 14.8562 23.575 15 24 15Z" fill="white"/>
</g>
</svg>
