<svg width="36" height="36" viewBox="0 0 36 36" fill="currentColor" xmlns="http://www.w3.org/2000/svg">
<mask id="mask0_215_1745" style="mask-type:alpha" maskUnits="userSpaceOnUse" x="0" y="0" width="36" height="36">
<rect width="36" height="36" fill="currentColor"/>
</mask>
<g mask="url(#mask0_215_1745)">
<path d="M1.5 30V25.8C1.5 24.95 1.71875 24.1687 2.15625 23.4562C2.59375 22.7437 3.175 22.2 3.9 21.825C5.45 21.05 7.025 20.4688 8.625 20.0812C10.225 19.6937 11.85 19.5 13.5 19.5C14.3 19.5 15.1062 19.5438 15.9188 19.6313C16.7313 19.7188 17.5375 19.8625 18.3375 20.0625C18.0125 20.4875 17.7313 20.9312 17.4938 21.3937C17.2563 21.8562 17.0625 22.3375 16.9125 22.8375C16.3375 22.7125 15.7687 22.625 15.2062 22.575C14.6437 22.525 14.075 22.5 13.5 22.5C12.1 22.5 10.7125 22.6688 9.3375 23.0063C7.9625 23.3438 6.6 23.85 5.25 24.525C5.025 24.65 4.84375 24.825 4.70625 25.05C4.56875 25.275 4.5 25.525 4.5 25.8V27H16.6125C16.7125 27.55 16.85 28.075 17.025 28.575C17.2 29.075 17.425 29.55 17.7 30H1.5ZM13.5 18C11.85 18 10.4375 17.4125 9.2625 16.2375C8.0875 15.0625 7.5 13.65 7.5 12C7.5 10.35 8.0875 8.9375 9.2625 7.7625C10.4375 6.5875 11.85 6 13.5 6C15.15 6 16.5625 6.5875 17.7375 7.7625C18.9125 8.9375 19.5 10.35 19.5 12C19.5 13.65 18.9125 15.0625 17.7375 16.2375C16.5625 17.4125 15.15 18 13.5 18ZM28.5 12C28.5 13.65 27.9125 15.0625 26.7375 16.2375C25.5625 17.4125 24.15 18 22.5 18C22.225 18 21.875 17.9688 21.45 17.9062C21.025 17.8438 20.675 17.775 20.4 17.7C21.075 16.9 21.5938 16.0125 21.9562 15.0375C22.3188 14.0625 22.5 13.05 22.5 12C22.5 10.95 22.3188 9.9375 21.9562 8.9625C21.5938 7.9875 21.075 7.1 20.4 6.3C20.75 6.175 21.1 6.09375 21.45 6.05625C21.8 6.01875 22.15 6 22.5 6C24.15 6 25.5625 6.5875 26.7375 7.7625C27.9125 8.9375 28.5 10.35 28.5 12ZM13.5 15C14.325 15 15.0313 14.7063 15.6188 14.1187C16.2063 13.5312 16.5 12.825 16.5 12C16.5 11.175 16.2063 10.4688 15.6188 9.88125C15.0313 9.29375 14.325 9 13.5 9C12.675 9 11.9688 9.29375 11.3813 9.88125C10.7937 10.4688 10.5 11.175 10.5 12C10.5 12.825 10.7937 13.5312 11.3813 14.1187C11.9688 14.7063 12.675 15 13.5 15ZM25.5 28.5C26.35 28.5 27.0563 28.25 27.6188 27.75C28.1813 27.25 28.475 26.5 28.5 25.5C28.525 24.65 28.2437 23.9375 27.6562 23.3625C27.0688 22.7875 26.35 22.5 25.5 22.5C24.65 22.5 23.9375 22.7875 23.3625 23.3625C22.7875 23.9375 22.5 24.65 22.5 25.5C22.5 26.35 22.7875 27.0625 23.3625 27.6375C23.9375 28.2125 24.65 28.5 25.5 28.5ZM25.5 31.5C23.85 31.5 22.4375 30.9125 21.2625 29.7375C20.0875 28.5625 19.5 27.15 19.5 25.5C19.5 23.85 20.0875 22.4375 21.2625 21.2625C22.4375 20.0875 23.85 19.5 25.5 19.5C27.15 19.5 28.5625 20.0875 29.7375 21.2625C30.9125 22.4375 31.5 23.85 31.5 25.5C31.5 26.075 31.4313 26.6188 31.2938 27.1313C31.1563 27.6438 30.95 28.125 30.675 28.575L34.5 32.4L32.4 34.5L28.575 30.675C28.125 30.95 27.6437 31.1563 27.1312 31.2938C26.6187 31.4313 26.075 31.5 25.5 31.5Z" fill="currentColor"/>
</g>
</svg>
