<svg width="36" height="36" viewBox="0 0 36 36" fill="currentColor" xmlns="http://www.w3.org/2000/svg">
<mask id="mask0_215_1748" style="mask-type:alpha" maskUnits="userSpaceOnUse" x="0" y="0" width="36" height="36">
<rect width="36" height="36" fill="currentColor"/>
</mask>
<g mask="url(#mask0_215_1748)">
<path d="M6 31.5V24C6 23.175 6.29375 22.4688 6.88125 21.8813C7.46875 21.2938 8.175 21 9 21H27C27.825 21 28.5312 21.2938 29.1188 21.8813C29.7063 22.4688 30 23.175 30 24V31.5H6ZM13.5 19.5C11.425 19.5 9.65625 18.7688 8.19375 17.3063C6.73125 15.8438 6 14.075 6 12C6 9.925 6.73125 8.15625 8.19375 6.69375C9.65625 5.23125 11.425 4.5 13.5 4.5H22.5C24.575 4.5 26.3438 5.23125 27.8063 6.69375C29.2688 8.15625 30 9.925 30 12C30 14.075 29.2688 15.8438 27.8063 17.3063C26.3438 18.7688 24.575 19.5 22.5 19.5H13.5ZM9 28.5H27V24H9V28.5ZM13.5 16.5H22.5C23.75 16.5 24.8125 16.0625 25.6875 15.1875C26.5625 14.3125 27 13.25 27 12C27 10.75 26.5625 9.6875 25.6875 8.8125C24.8125 7.9375 23.75 7.5 22.5 7.5H13.5C12.25 7.5 11.1875 7.9375 10.3125 8.8125C9.4375 9.6875 9 10.75 9 12C9 13.25 9.4375 14.3125 10.3125 15.1875C11.1875 16.0625 12.25 16.5 13.5 16.5ZM13.5 13.5C13.925 13.5 14.2812 13.3562 14.5688 13.0688C14.8562 12.7812 15 12.425 15 12C15 11.575 14.8562 11.2188 14.5688 10.9312C14.2812 10.6437 13.925 10.5 13.5 10.5C13.075 10.5 12.7188 10.6437 12.4312 10.9312C12.1437 11.2188 12 11.575 12 12C12 12.425 12.1437 12.7812 12.4312 13.0688C12.7188 13.3562 13.075 13.5 13.5 13.5ZM22.5 13.5C22.925 13.5 23.2812 13.3562 23.5688 13.0688C23.8563 12.7812 24 12.425 24 12C24 11.575 23.8563 11.2188 23.5688 10.9312C23.2812 10.6437 22.925 10.5 22.5 10.5C22.075 10.5 21.7188 10.6437 21.4313 10.9312C21.1438 11.2188 21 11.575 21 12C21 12.425 21.1438 12.7812 21.4313 13.0688C21.7188 13.3562 22.075 13.5 22.5 13.5Z" fill="currentColor"/>
</g>
</svg>
