<svg width="36" height="36" viewBox="0 0 36 36" fill="currentColor" xmlns="http://www.w3.org/2000/svg">
<mask id="mask0_215_1754" style="mask-type:alpha" maskUnits="userSpaceOnUse" x="0" y="0" width="36" height="36">
<rect width="36" height="36" fill="currentColor"/>
</mask>
<g mask="url(#mask0_215_1754)">
<path d="M14.6625 27C15.0875 27 15.4938 26.925 15.8813 26.775C16.2688 26.625 16.65 26.45 17.025 26.25C17.175 26.15 17.3313 26.0625 17.4938 25.9875C17.6563 25.9125 17.825 25.875 18 25.875C18.2 25.875 18.525 26 18.975 26.25C19.35 26.45 19.7313 26.625 20.1188 26.775C20.5063 26.925 20.9125 27 21.3375 27C22.5875 27 23.5938 26.5562 24.3563 25.6688C25.1187 24.7812 25.5 23.6 25.5 22.125C25.5 20.325 24.8813 18.9375 23.6437 17.9625C22.4062 16.9875 20.625 16.5 18.3 16.5H17.7C15.375 16.5 13.5938 16.9875 12.3563 17.9625C11.1188 18.9375 10.5 20.325 10.5 22.125C10.5 23.6 10.8813 24.7812 11.6438 25.6688C12.4063 26.5562 13.4125 27 14.6625 27ZM14.625 24.75C14.025 24.75 13.5562 24.5188 13.2188 24.0563C12.8813 23.5938 12.7125 22.95 12.7125 22.125C12.7125 20.975 13.1187 20.125 13.9312 19.575C14.7437 19.025 16 18.75 17.7 18.75H18.2625C19.9625 18.75 21.2125 19.025 22.0125 19.575C22.8125 20.125 23.2125 20.975 23.2125 22.125C23.2125 22.95 23.05 23.5938 22.725 24.0563C22.4 24.5188 21.9375 24.75 21.3375 24.75C21.0375 24.75 20.6125 24.6 20.0625 24.3C19.7375 24.1 19.4062 23.9375 19.0688 23.8125C18.7313 23.6875 18.375 23.625 18 23.625C17.625 23.625 17.2625 23.6875 16.9125 23.8125C16.5625 23.9375 16.225 24.1 15.9 24.3C15.7 24.425 15.4937 24.5312 15.2812 24.6188C15.0688 24.7063 14.85 24.75 14.625 24.75ZM9.4125 16.05C10.9125 15.45 12.1125 14.7875 13.0125 14.0625C13.9125 13.3375 14.7625 12.35 15.5625 11.1L13.6875 9.9C13.0375 10.925 12.3563 11.7125 11.6438 12.2625C10.9313 12.8125 9.9 13.375 8.55 13.95L9.4125 16.05ZM26.55 16.05L27.4125 13.95C26.0875 13.4 25.075 12.85 24.375 12.3C23.675 11.75 22.9875 10.95 22.3125 9.9L20.4375 11.1C21.2375 12.35 22.0875 13.3313 22.9875 14.0438C23.8875 14.7563 25.075 15.425 26.55 16.05ZM18 33C15.925 33 13.975 32.6062 12.15 31.8187C10.325 31.0312 8.7375 29.9625 7.3875 28.6125C6.0375 27.2625 4.96875 25.675 4.18125 23.85C3.39375 22.025 3 20.075 3 18C3 15.925 3.39375 13.975 4.18125 12.15C4.96875 10.325 6.0375 8.7375 7.3875 7.3875C8.7375 6.0375 10.325 4.96875 12.15 4.18125C13.975 3.39375 15.925 3 18 3C20.075 3 22.025 3.39375 23.85 4.18125C25.675 4.96875 27.2625 6.0375 28.6125 7.3875C29.9625 8.7375 31.0312 10.325 31.8187 12.15C32.6062 13.975 33 15.925 33 18C33 20.075 32.6062 22.025 31.8187 23.85C31.0312 25.675 29.9625 27.2625 28.6125 28.6125C27.2625 29.9625 25.675 31.0312 23.85 31.8187C22.025 32.6062 20.075 33 18 33ZM18 30C21.35 30 24.1875 28.8375 26.5125 26.5125C28.8375 24.1875 30 21.35 30 18C30 14.65 28.8375 11.8125 26.5125 9.4875C24.1875 7.1625 21.35 6 18 6C14.65 6 11.8125 7.1625 9.4875 9.4875C7.1625 11.8125 6 14.65 6 18C6 21.35 7.1625 24.1875 9.4875 26.5125C11.8125 28.8375 14.65 30 18 30Z" fill="currentColor"/>
</g>
</svg>
