<svg width="36" height="36" viewBox="0 0 36 36" fill="currentColor" xmlns="http://www.w3.org/2000/svg">
<mask id="mask0_215_1732" style="mask-type:alpha" maskUnits="userSpaceOnUse" x="0" y="0" width="36" height="36">
<rect width="36" height="36" fill="#D9D9D9"/>
</mask>
<g mask="url(#mask0_215_1732)">
<path d="M10.4996 32.9988C8.84961 32.9988 7.43711 32.4113 6.26211 31.2363C5.08711 30.0613 4.49961 28.6488 4.49961 26.9988C4.49961 26.0238 4.60586 25.0551 4.81836 24.0926C5.03086 23.1301 5.38711 22.2488 5.88711 21.4488L3.63711 19.6488L9.82461 14.2863C9.69961 13.6113 9.71836 12.9613 9.88086 12.3363C10.0434 11.7113 10.2996 11.1363 10.6496 10.6113L17.9246 17.8863C17.4496 18.2113 16.9309 18.4488 16.3684 18.5988C15.8059 18.7488 15.2121 18.7988 14.5871 18.7488L10.8371 25.3488L8.28711 23.3238C8.01211 23.8488 7.81211 24.4301 7.68711 25.0676C7.56211 25.7051 7.49961 26.3488 7.49961 26.9988C7.49961 27.8238 7.79961 28.5301 8.39961 29.1176C8.99961 29.7051 9.69961 29.9988 10.4996 29.9988C11.2746 29.9988 11.9309 29.7488 12.4684 29.2488C13.0059 28.7488 13.4996 27.9238 13.9496 26.7738C14.2246 26.0988 14.4746 25.5238 14.6996 25.0488C14.9246 24.5738 15.1746 24.1551 15.4496 23.7926C15.7246 23.4301 16.0371 23.0988 16.3871 22.7988C16.7371 22.4988 17.1496 22.1863 17.6246 21.8613L7.64961 11.8863C7.59961 12.1613 7.56211 12.4301 7.53711 12.6926C7.51211 12.9551 7.49961 13.2238 7.49961 13.4988H4.49961C4.49961 12.7738 4.56211 12.0801 4.68711 11.4176C4.81211 10.7551 4.99961 10.1113 5.24961 9.48633L2.09961 6.33633L4.19961 4.19883L31.7996 31.7988L29.6621 33.8988L19.7246 23.9613C19.2246 24.3613 18.8184 24.7113 18.5059 25.0113C18.1934 25.3113 17.9309 25.6113 17.7184 25.9113C17.5059 26.2113 17.3121 26.5551 17.1371 26.9426C16.9621 27.3301 16.7746 27.8238 16.5746 28.4238C16.0746 29.8738 15.2934 30.9988 14.2309 31.7988C13.1684 32.5988 11.9246 32.9988 10.4996 32.9988ZM27.9746 23.6613L25.8371 21.5238C26.7121 20.3488 27.3746 19.0801 27.8246 17.7176C28.2746 16.3551 28.4996 14.9488 28.4996 13.4988C28.4996 11.6738 28.1559 9.93633 27.4684 8.28633C26.7809 6.63633 25.7996 5.17383 24.5246 3.89883L26.6996 1.79883C28.2496 3.37383 29.4371 5.16758 30.2621 7.18008C31.0871 9.19258 31.4996 11.2988 31.4996 13.4988C31.4996 15.3238 31.1996 17.0988 30.5996 18.8238C29.9996 20.5488 29.1246 22.1613 27.9746 23.6613ZM23.8871 19.5738L21.7121 17.3988C21.9871 16.8238 22.1871 16.2113 22.3121 15.5613C22.4371 14.9113 22.4996 14.2238 22.4996 13.4988C22.4996 11.3738 21.7809 9.59258 20.3434 8.15508C18.9059 6.71758 17.1246 5.99883 14.9996 5.99883C14.3496 5.99883 13.7121 6.08008 13.0871 6.24258C12.4621 6.40508 11.8621 6.64883 11.2871 6.97383L9.07461 4.76133C9.94961 4.18633 10.8871 3.74883 11.8871 3.44883C12.8871 3.14883 13.9246 2.99883 14.9996 2.99883C17.9746 2.99883 20.4684 4.00508 22.4809 6.01758C24.4934 8.03008 25.4996 10.5238 25.4996 13.4988C25.4996 14.6238 25.3684 15.6926 25.1059 16.7051C24.8434 17.7176 24.4371 18.6738 23.8871 19.5738ZM19.8371 15.5238L12.9746 8.66133C13.2996 8.53633 13.6309 8.43633 13.9684 8.36133C14.3059 8.28633 14.6496 8.24883 14.9996 8.24883C16.4496 8.24883 17.6871 8.76133 18.7121 9.78633C19.7371 10.8113 20.2496 12.0488 20.2496 13.4988C20.2496 13.8488 20.2121 14.1926 20.1371 14.5301C20.0621 14.8676 19.9621 15.1988 19.8371 15.5238ZM9.93711 20.8488L11.7371 17.6238C11.6371 17.5488 11.5434 17.4676 11.4559 17.3801L11.1746 17.0988L8.36211 19.5738L9.93711 20.8488Z" fill="white"/>
</g>
</svg>
