<svg width="36" height="36" viewBox="0 0 36 36" fill="none" xmlns="http://www.w3.org/2000/svg">
<mask id="mask0_215_1751" style="mask-type:alpha" maskUnits="userSpaceOnUse" x="0" y="0" width="36" height="36">
<rect width="36" height="36" fill="#D9D9D9"/>
</mask>
<g mask="url(#mask0_215_1751)">
<path d="M11.7 27C10.425 27 9.20625 26.775 8.04375 26.325C6.88125 25.875 5.8375 25.2125 4.9125 24.3375C3.7125 23.2125 2.84375 21.8813 2.30625 20.3438C1.76875 18.8062 1.5 17.2125 1.5 15.5625C1.5 13.6125 1.975 12.0312 2.925 10.8187C3.875 9.60625 5.2625 9 7.0875 9C7.4375 9 7.76875 9.03125 8.08125 9.09375C8.39375 9.15625 8.7125 9.25 9.0375 9.375L18 12.7125L26.9625 9.375C27.2875 9.25 27.6063 9.15625 27.9188 9.09375C28.2313 9.03125 28.5625 9 28.9125 9C30.7375 9 32.125 9.60625 33.075 10.8187C34.025 12.0312 34.5 13.6125 34.5 15.5625C34.5 17.2125 34.2313 18.8062 33.6937 20.3438C33.1562 21.8813 32.2875 23.2125 31.0875 24.3375C30.1625 25.2125 29.1188 25.875 27.9563 26.325C26.7938 26.775 25.575 27 24.3 27C22.65 27 21.25 26.625 20.1 25.875L18.375 24.75H17.625L15.9 25.875C14.75 26.625 13.35 27 11.7 27ZM11.7 24C12.625 24 13.4875 23.7812 14.2875 23.3438C15.0875 22.9062 15.825 22.375 16.5 21.75H19.5C20.175 22.375 20.9125 22.9062 21.7125 23.3438C22.5125 23.7812 23.375 24 24.3 24C25.2 24 26.0688 23.8438 26.9062 23.5312C27.7437 23.2188 28.4875 22.7375 29.1375 22.0875C29.9875 21.2375 30.5938 20.2375 30.9563 19.0875C31.3188 17.9375 31.5 16.7625 31.5 15.5625C31.5 14.5375 31.2875 13.6813 30.8625 12.9938C30.4375 12.3063 29.7625 11.975 28.8375 12C28.7625 12 28.4875 12.05 28.0125 12.15L18 15.9L7.9875 12.15C7.8625 12.1 7.73125 12.0625 7.59375 12.0375C7.45625 12.0125 7.3125 12 7.1625 12C6.2375 12 5.5625 12.3375 5.1375 13.0125C4.7125 13.6875 4.5 14.5375 4.5 15.5625C4.5 16.7875 4.68125 17.975 5.04375 19.125C5.40625 20.275 6.025 21.275 6.9 22.125C7.55 22.75 8.2875 23.2188 9.1125 23.5312C9.9375 23.8438 10.8 24 11.7 24ZM13.5375 21.75C14.4625 21.75 15.1875 21.5438 15.7125 21.1313C16.2375 20.7188 16.5 20.15 16.5 19.425C16.5 18.2 15.6937 17.0312 14.0812 15.9188C12.4688 14.8063 10.7625 14.25 8.9625 14.25C8.0375 14.25 7.3125 14.4563 6.7875 14.8688C6.2625 15.2812 6 15.85 6 16.575C6 17.8 6.80625 18.9688 8.41875 20.0813C10.0312 21.1938 11.7375 21.75 13.5375 21.75ZM13.3125 19.5C12.3625 19.5 11.3313 19.1875 10.2188 18.5625C9.10625 17.9375 8.45 17.3 8.25 16.65C8.375 16.6 8.51875 16.5563 8.68125 16.5188C8.84375 16.4813 9.0125 16.4625 9.1875 16.4625C10.1375 16.4625 11.1687 16.7813 12.2812 17.4188C13.3938 18.0563 14.05 18.7 14.25 19.35C14.125 19.4 13.9813 19.4375 13.8188 19.4625C13.6563 19.4875 13.4875 19.5 13.3125 19.5ZM22.4625 21.7875C24.2625 21.7875 25.9688 21.225 27.5813 20.1C29.1938 18.975 30 17.8 30 16.575C30 15.85 29.7438 15.275 29.2313 14.85C28.7188 14.425 27.9875 14.2125 27.0375 14.2125C25.2375 14.2125 23.5312 14.775 21.9188 15.9C20.3062 17.025 19.5 18.2 19.5 19.425C19.5 20.15 19.7625 20.725 20.2875 21.15C20.8125 21.575 21.5375 21.7875 22.4625 21.7875ZM22.6875 19.5C22.5125 19.5 22.35 19.4875 22.2 19.4625C22.05 19.4375 21.9125 19.4 21.7875 19.35C21.9875 18.7 22.6438 18.0625 23.7563 17.4375C24.8688 16.8125 25.9 16.5 26.85 16.5C27.025 16.5 27.1875 16.5125 27.3375 16.5375C27.4875 16.5625 27.625 16.6 27.75 16.65C27.55 17.3 26.8937 17.9375 25.7812 18.5625C24.6688 19.1875 23.6375 19.5 22.6875 19.5Z" fill="white"/>
</g>
</svg>
