<svg width="1110" height="215" viewBox="0 0 1110 215" fill="none" xmlns="http://www.w3.org/2000/svg">
<path d="M107.49 214.98C166.85 214.98 214.98 166.86 214.98 107.49C214.98 48.12 166.86 0 107.49 0C48.12 0 0 48.12 0 107.49C0 166.86 48.12 214.98 107.49 214.98Z" fill="#40EDAB"/>
<mask id="mask0_421_2526" style="mask-type:luminance" maskUnits="userSpaceOnUse" x="273" y="52" width="837" height="111">
<path d="M1109.86 52.9102H273.86V162.91H1109.86V52.9102Z" fill="white"/>
</mask>
<g mask="url(#mask0_421_2526)">
<path d="M355.99 115.38H390.68C387.32 144.11 364.22 162.96 332.71 162.96H332.25C298.94 162.91 273.86 140.9 273.86 107.94C273.86 74.9799 298.2 52.9199 332.25 52.9199H332.71C364.18 52.9199 387.32 71.7699 390.68 100.5H355.99C352.95 91.2099 344.26 84.0899 332.71 84.0899H332.25C317.8 84.0899 307.91 94.1099 307.91 107.95C307.91 121.79 317.8 131.81 332.25 131.81H332.71C344.26 131.81 352.95 124.82 355.99 115.4V115.38Z" fill="#05028E"/>
<path d="M481.64 144.25H441.01L436.59 161.12H402.82L430.98 54.75H491.8L519.96 161.12H486.05L481.63 144.25H481.64ZM473.87 114.6L465.96 84.08H456.53L448.62 114.6H473.88H473.87Z" fill="#05028E"/>
<path d="M624.78 131.79V161.12H541.27V54.75H574.72V131.79H624.78Z" fill="#05028E"/>
<path d="M766.99 54.75V161.12H734.28V107.94L707.96 140.9L680.26 107.02V161.12H647.55V54.75H680.26L707.96 91.39L734.28 54.75H766.99Z" fill="#05028E"/>
<path d="M797.45 54.75H830.9V161.12H797.45V54.75Z" fill="#05028E"/>
<path d="M968.24 107.93C968.24 140.75 942.98 161.11 909.67 161.11H862.83V54.7402H909.67C942.98 54.7402 968.24 74.9702 968.24 107.92V107.93ZM934.19 107.93C934.19 94.2302 923.84 83.9402 909.71 83.9402H896.18V131.98H909.71C923.83 131.66 934.19 121.5 934.19 107.99V107.94V107.93Z" fill="#05028E"/>
<path d="M1109.86 107.93C1109.86 140.89 1085.52 162.95 1051.47 162.95H1051.01C1017.7 162.95 992.63 140.93 992.63 107.93C992.63 74.9302 1016.97 52.9102 1051.01 52.9102H1051.47C1085.57 52.9102 1109.86 75.1102 1109.86 107.93ZM1075.81 107.93C1075.81 94.0902 1065.92 84.0702 1051.47 84.0702H1051.01C1036.57 84.0702 1026.67 94.0902 1026.67 107.93C1026.67 121.77 1036.57 131.79 1051.01 131.79H1051.47C1065.92 131.79 1075.81 121.91 1075.81 107.93Z" fill="#05028E"/>
</g>
</svg>
