<svg width="1112" height="215" viewBox="0 0 1112 215" fill="none" xmlns="http://www.w3.org/2000/svg">
<mask id="mask0_421_2523" style="mask-type:luminance" maskUnits="userSpaceOnUse" x="275" y="52" width="837" height="110">
<path d="M1111.33 52H275.33V162H1111.33V52Z" fill="white"/>
</mask>
<g mask="url(#mask0_421_2523)">
<path d="M357.46 114.47H392.15C388.79 143.2 365.69 162.05 334.18 162.05H333.72C300.41 162 275.33 139.99 275.33 107.03C275.33 74.0698 299.67 52.0098 333.72 52.0098H334.18C365.65 52.0098 388.79 70.8598 392.15 99.5898H357.46C354.42 90.2998 345.73 83.1798 334.18 83.1798H333.72C319.27 83.1798 309.38 93.1998 309.38 107.04C309.38 120.88 319.27 130.9 333.72 130.9H334.18C345.73 130.9 354.42 123.91 357.46 114.49V114.47Z" fill="currentColor"/>
<path d="M483.11 143.34H442.48L438.06 160.21H404.29L432.45 53.8398H493.27L521.43 160.21H487.52L483.1 143.34H483.11ZM475.34 113.69L467.43 83.1698H458L450.09 113.69H475.35H475.34Z" fill="currentColor"/>
<path d="M626.25 130.88V160.21H542.74V53.8398H576.19V130.88H626.25Z" fill="currentColor"/>
<path d="M768.46 53.8398V160.21H735.75V107.03L709.43 139.99L681.73 106.11V160.21H649.02V53.8398H681.73L709.43 90.4798L735.75 53.8398H768.46Z" fill="currentColor"/>
<path d="M798.92 53.8398H832.37V160.21H798.92V53.8398Z" fill="currentColor"/>
<path d="M969.71 107.02C969.71 139.84 944.45 160.2 911.14 160.2H864.3V53.8301H911.14C944.45 53.8301 969.71 74.0601 969.71 107.01V107.02ZM935.66 107.02C935.66 93.3201 925.31 83.0301 911.18 83.0301H897.65V131.07H911.18C925.3 130.75 935.66 120.59 935.66 107.08V107.03V107.02Z" fill="currentColor"/>
<path d="M1111.33 107.02C1111.33 139.98 1086.99 162.04 1052.94 162.04H1052.48C1019.17 162.04 994.1 140.02 994.1 107.02C994.1 74.02 1018.44 52 1052.48 52H1052.94C1087.04 52 1111.33 74.2 1111.33 107.02ZM1077.28 107.02C1077.28 93.18 1067.39 83.16 1052.94 83.16H1052.48C1038.04 83.16 1028.14 93.18 1028.14 107.02C1028.14 120.86 1038.04 130.88 1052.48 130.88H1052.94C1067.39 130.88 1077.28 121 1077.28 107.02Z" fill="currentColor"/>
</g>
<path d="M107.5 215C166.871 215 215 166.871 215 107.5C215 48.1294 166.871 0 107.5 0C48.1294 0 0 48.1294 0 107.5C0 166.871 48.1294 215 107.5 215Z" fill="#40EDAB"/>
<path d="M137.05 116.25H180.86C176.63 152.57 147.43 176.39 107.65 176.39H107.07C64.99 176.39 33.28 148.53 33.28 106.83C33.28 65.13 64.02 37.27 107.07 37.27H107.65C147.43 37.27 176.63 61.1 180.86 97.41H137.05C133.21 85.69 122.25 76.66 107.65 76.66H107.07C88.82 76.66 76.33 89.34 76.33 106.83C76.33 124.32 88.82 137 107.07 137H107.65C122.25 137 133.21 128.16 137.05 116.25Z" fill="#09298E"/>
</svg>
