<svg width="292" height="80" viewBox="0 0 292 80" fill="none" xmlns="http://www.w3.org/2000/svg">
<path d="M39.3733 66.2739C53.4853 66.2739 64.9253 54.4643 64.9253 39.8964C64.9253 25.3286 53.4853 13.519 39.3733 13.519C25.2613 13.519 13.8213 25.3286 13.8213 39.8964C13.8213 54.4643 25.2613 66.2739 39.3733 66.2739Z" fill="#40EDAB"/>
<path d="M53.1755 55.0791C49.7125 55.0791 46.2901 54.2993 42.9084 52.7398C39.5267 51.1802 36.4529 48.9729 33.6813 46.1117C30.9097 43.2506 28.7714 40.0776 27.2607 36.5866C25.75 33.0956 24.9946 29.5627 24.9946 25.9878C24.9946 25.4719 25.1631 25.0461 25.4943 24.6982C25.8255 24.3503 26.2439 24.1823 26.7436 24.1823H33.4779C33.8673 24.1823 34.2101 24.3203 34.518 24.5902C34.826 24.8601 35.0003 25.184 35.0584 25.5559L36.1392 31.5661C36.1973 32.022 36.1798 32.4118 36.0985 32.7238C36.0171 33.0357 35.8603 33.3116 35.6395 33.5395L31.607 37.7443C32.159 38.7999 32.8214 39.8256 33.5825 40.8093C34.3437 41.793 35.1804 42.7468 36.0985 43.6645C36.9584 44.5522 37.8591 45.374 38.8004 46.1297C39.7417 46.8855 40.7411 47.5813 41.7928 48.2111L45.6974 44.1803C45.9473 43.9224 46.2727 43.7305 46.6736 43.5985C47.0745 43.4665 47.4696 43.4366 47.8589 43.4905L53.5939 44.6902C53.9832 44.8041 54.3028 45.0141 54.5526 45.314C54.8025 45.6139 54.9245 45.9498 54.9245 46.3217V53.2736C54.9245 53.7895 54.756 54.2153 54.4248 54.5632C54.0936 54.9111 53.6752 55.0791 53.1755 55.0791ZM30.0265 34.4812L32.7691 31.6501L32.0602 27.6193H28.3589C28.4984 28.7949 28.6901 29.9526 28.94 31.0922C29.1898 32.2379 29.5501 33.3656 30.0207 34.4812H30.0265ZM44.9072 49.8426C45.9879 50.3285 47.0919 50.7124 48.2134 51.0003C49.3348 51.2882 50.462 51.4741 51.6009 51.5581V47.7792L47.6962 46.9635L44.913 49.8366L44.9072 49.8426Z" fill="#0B2986"/>
<g clip-path="url(#clip0_190_1888)">
<path d="M98.4462 41.2795H106.693C105.895 48.1107 100.404 52.592 92.9118 52.592H92.8025C84.8838 52.581 78.9229 47.3456 78.9229 39.5089C78.9229 31.6721 84.7088 26.4258 92.8025 26.4258H92.9118C100.393 26.4258 105.895 30.907 106.693 37.7382H98.4462C97.7243 35.5304 95.6571 33.8363 92.9118 33.8363H92.8025C89.3681 33.8363 87.0166 36.219 87.0166 39.5089C87.0166 42.7988 89.3681 45.1815 92.8025 45.1815H92.9118C95.6571 45.1815 97.7243 43.5202 98.4462 41.2795Z" fill="currentColor"/>
<path d="M128.316 48.1435H118.659L117.609 52.1548H109.581L116.274 26.863H130.734L137.427 52.1548H129.366L128.316 48.1435ZM126.468 41.0937L124.587 33.8363H122.345L120.463 41.0937H126.468Z" fill="currentColor"/>
<path d="M162.343 45.1815V52.1548H142.491V26.863H150.443V45.1815H162.343Z" fill="currentColor"/>
<path d="M196.15 26.863V52.1548H188.374V39.5089L182.118 47.3456L175.533 39.2903V52.1548H167.757V26.863H175.533L182.118 35.5741L188.374 26.863H196.15Z" fill="currentColor"/>
<path d="M203.391 26.863H211.342V52.1548H203.391V26.863Z" fill="currentColor"/>
<path d="M243.991 39.5089C243.991 47.3128 237.986 52.1548 230.067 52.1548H218.933V26.863H230.067C237.986 26.863 243.991 31.6721 243.991 39.5089ZM235.897 39.5089C235.897 36.2518 233.436 33.8035 230.078 33.8035H226.863V45.2252H230.078C233.436 45.1487 235.897 42.7332 235.897 39.5198V39.5089Z" fill="currentColor"/>
<path d="M277.656 39.5089C277.656 47.3456 271.87 52.592 263.777 52.592H263.667C255.749 52.592 249.788 47.3566 249.788 39.5089C249.788 31.6612 255.574 26.4258 263.667 26.4258H263.777C271.881 26.4258 277.656 31.7049 277.656 39.5089ZM269.562 39.5089C269.562 36.219 267.211 33.8363 263.777 33.8363H263.667C260.233 33.8363 257.881 36.219 257.881 39.5089C257.881 42.7988 260.233 45.1815 263.667 45.1815H263.777C267.211 45.1815 269.562 42.8316 269.562 39.5089Z" fill="currentColor"/>
</g>
<defs>
<clipPath id="clip0_190_1888">
<rect width="198.733" height="26.1553" fill="white" transform="translate(78.9229 26.4258)"/>
</clipPath>
</defs>
</svg>
