<svg width="90" height="90" viewBox="0 0 90 90" fill="none" xmlns="http://www.w3.org/2000/svg">
<path d="M26.25 86.25L36.75 33.375L30 36V48.75H22.5V31.125L41.4375 23.0625C42.3125 22.6875 43.2344 22.4688 44.2031 22.4062C45.1719 22.3438 46.0938 22.4688 46.9688 22.7813C47.8438 23.0938 48.6719 23.5312 49.4531 24.0938C50.2344 24.6562 50.875 25.375 51.375 26.25L55.125 32.25C56.75 34.875 58.9531 37.0312 61.7344 38.7188C64.5156 40.4062 67.6875 41.25 71.25 41.25V48.75C66.875 48.75 62.9688 47.8438 59.5312 46.0313C56.0938 44.2188 53.1562 41.9062 50.7188 39.0938L48.375 50.625L56.25 58.125V86.25H48.75V61.875L40.875 55.875L34.125 86.25H26.25ZM50.625 20.625C48.5625 20.625 46.7969 19.8906 45.3281 18.4219C43.8594 16.9531 43.125 15.1875 43.125 13.125C43.125 11.0625 43.8594 9.29688 45.3281 7.82813C46.7969 6.35938 48.5625 5.625 50.625 5.625C52.6875 5.625 54.4531 6.35938 55.9219 7.82813C57.3906 9.29688 58.125 11.0625 58.125 13.125C58.125 15.1875 57.3906 16.9531 55.9219 18.4219C54.4531 19.8906 52.6875 20.625 50.625 20.625Z" fill="currentColor"/>
</svg>
