<svg xmlns="http://www.w3.org/2000/svg" viewBox="0 0 24 24" width="24" height="24" fill="currentColor">
  <g transform="translate(-144 -60)">
    <path d="M163.95 81C161.867 81 159.808 80.5458 157.775 79.6375C155.742 78.7292 153.892 77.4417 152.225 75.775C150.558 74.1083 149.271 72.2583 148.363 70.225C147.454 68.1917 147 66.1333 147 64.05C147 63.75 147.1 63.5 147.3 63.3C147.5 63.1 147.75 63 148.05 63H152.1C152.333 63 152.542 63.0792 152.725 63.2375C152.908 63.3958 153.017 63.5833 153.05 63.8L153.7 67.3C153.733 67.5667 153.725 67.7917 153.675 67.975C153.625 68.1583 153.533 68.3167 153.4 68.45L150.975 70.9C151.308 71.5167 151.704 72.1125 152.162 72.6875C152.621 73.2625 153.125 73.8167 153.675 74.35C154.192 74.8667 154.733 75.3458 155.3 75.7875C155.867 76.2292 156.467 76.6333 157.1 77L159.45 74.65C159.6 74.5 159.796 74.3875 160.038 74.3125C160.279 74.2375 160.517 74.2167 160.75 74.25L164.2 74.95C164.433 75.0167 164.625 75.1375 164.775 75.3125C164.925 75.4875 165 75.6833 165 75.9V79.95C165 80.25 164.9 80.5 164.7 80.7C164.5 80.9 164.25 81 163.95 81ZM150.025 69L151.675 67.35L151.25 65H149.025C149.108 65.6833 149.225 66.3583 149.375 67.025C149.525 67.6917 149.742 68.35 150.025 69ZM158.975 77.95C159.625 78.2333 160.288 78.4583 160.963 78.625C161.638 78.7917 162.317 78.9 163 78.95V76.75L160.65 76.275L158.975 77.95Z" fill="currentColor"/>
  </g>
</svg>
