<svg xmlns="http://www.w3.org/2000/svg" viewBox="0 0 24 24" width="24" height="24" fill="currentColor">
  <g transform="translate(-617 -976)">
    <path d="M623.8 997.4L622.85 996.45L621.8 997.5C621.483 997.817 621.096 997.979 620.637 997.988C620.179 997.996 619.8 997.833 619.5 997.5C619.183 997.183 619.025 996.8 619.025 996.35C619.025 995.9 619.183 995.517 619.5 995.2L620.55 994.15L619.6 993.15L633.45 979.3C633.65 979.1 633.892 979 634.175 979C634.458 979 634.7 979.1 634.9 979.3L637.7 982.1C637.9 982.3 638 982.542 638 982.825C638 983.108 637.9 983.35 637.7 983.55L623.8 997.4ZM628.1 987.5L622.4 993.15L623.85 994.6L629.5 988.9L628.1 987.5Z" fill="currentColor"/>
  </g>
</svg>
