<svg xmlns="http://www.w3.org/2000/svg" viewBox="0 0 24 24" fill="currentColor">
<path d="M17.05 11.97c-.02-2.52 2.05-3.73 2.14-3.8-1.17-1.71-2.99-1.95-3.63-1.97-1.55-.15-3 .91-3.77.91-.77 0-1.96-.89-3.23-.87-1.66.03-3.18.96-4.04 2.45-1.73 3-.44 7.44 1.22 9.89.83 1.2 1.81 2.53 3.1 2.48 1.25-.05 1.72-.8 3.23-.8s1.94.8 3.25.78c1.34-.02 2.19-1.21 3-2.41.94-1.39 1.33-2.73 1.35-2.8-.03-.01-2.59-.99-2.62-3.86zM14.6 4.49c.68-.83 1.14-1.98 1.02-3.13-.99.04-2.19.66-2.89 1.48-.63.73-1.18 1.91-1.03 3.03 1.1.08 2.23-.56 2.9-1.38z"/>
</svg>
