<svg width="60" height="60" viewBox="0 0 60 60" fill="none" xmlns="http://www.w3.org/2000/svg">
<mask id="mask0_461_3055" style="mask-type:alpha" maskUnits="userSpaceOnUse" x="0" y="0" width="60" height="60">
<rect width="60" height="60" fill="currentColor"/>
</mask>
<g mask="url(#mask0_461_3055)">
<path d="M45 45C46.0417 45 46.9271 44.6354 47.6562 43.9062C48.3854 43.1771 48.75 42.2917 48.75 41.25C48.75 40.2083 48.3854 39.3229 47.6562 38.5938C46.9271 37.8646 46.0417 37.5 45 37.5C43.9583 37.5 43.0729 37.8646 42.3438 38.5938C41.6146 39.3229 41.25 40.2083 41.25 41.25C41.25 42.2917 41.6146 43.1771 42.3438 43.9062C43.0729 44.6354 43.9583 45 45 45ZM45 52.5C46.25 52.5 47.4167 52.2083 48.5 51.625C49.5833 51.0417 50.4792 50.2292 51.1875 49.1875C50.2292 48.6042 49.2292 48.1771 48.1875 47.9062C47.1458 47.6354 46.0833 47.5 45 47.5C43.9167 47.5 42.8542 47.6354 41.8125 47.9062C40.7708 48.1771 39.7708 48.6042 38.8125 49.1875C39.5208 50.2292 40.4167 51.0417 41.5 51.625C42.5833 52.2083 43.75 52.5 45 52.5ZM22.5 20H37.5V15C37.5 12.9167 36.7708 11.1458 35.3125 9.6875C33.8542 8.22917 32.0833 7.5 30 7.5C27.9167 7.5 26.1458 8.22917 24.6875 9.6875C23.2292 11.1458 22.5 12.9167 22.5 15V20ZM30.625 55H15C13.625 55 12.4479 54.5104 11.4688 53.5312C10.4896 52.5521 10 51.375 10 50V25C10 23.625 10.4896 22.4479 11.4688 21.4688C12.4479 20.4896 13.625 20 15 20H17.5V15C17.5 11.5417 18.7188 8.59375 21.1562 6.15625C23.5938 3.71875 26.5417 2.5 30 2.5C33.4583 2.5 36.4062 3.71875 38.8438 6.15625C41.2813 8.59375 42.5 11.5417 42.5 15V20H45C46.375 20 47.5521 20.4896 48.5312 21.4688C49.5104 22.4479 50 23.625 50 25V28.25C49.25 28 48.4688 27.8125 47.6562 27.6875C46.8438 27.5625 45.9583 27.5 45 27.5V25H15V50H28.25C28.5833 51 28.9167 51.8646 29.25 52.5938C29.5833 53.3229 30.0417 54.125 30.625 55ZM45 57.5C41.5417 57.5 38.5938 56.2812 36.1563 53.8438C33.7188 51.4062 32.5 48.4583 32.5 45C32.5 41.5417 33.7188 38.5938 36.1563 36.1562C38.5938 33.7188 41.5417 32.5 45 32.5C48.4583 32.5 51.4062 33.7188 53.8438 36.1562C56.2812 38.5938 57.5 41.5417 57.5 45C57.5 48.4583 56.2812 51.4062 53.8438 53.8438C51.4062 56.2812 48.4583 57.5 45 57.5Z" fill="currentColor"/>
</g>
</svg>
