<svg width="90" height="90" viewBox="0 0 90 90" fill="none" xmlns="http://www.w3.org/2000/svg">
<path d="M0 75V64.5938C0 62.4688 0.53125 60.5 1.59375 58.6875C2.65625 56.875 4.125 55.5 6 54.5625C6.875 54.125 7.71875 53.7188 8.53125 53.3438C9.40625 52.9688 10.3125 52.625 11.25 52.3125V75H0ZM15 48.75C11.875 48.75 9.21875 47.6563 7.03125 45.4688C4.84375 43.2813 3.75 40.625 3.75 37.5C3.75 34.375 4.84375 31.7188 7.03125 29.5312C9.21875 27.3437 11.875 26.25 15 26.25C18.125 26.25 20.7812 27.3437 22.9688 29.5312C25.1562 31.7188 26.25 34.375 26.25 37.5C26.25 40.625 25.1562 43.2813 22.9688 45.4688C20.7812 47.6563 18.125 48.75 15 48.75ZM15 41.25C16.0625 41.25 16.9375 40.9063 17.625 40.2188C18.375 39.4688 18.75 38.5625 18.75 37.5C18.75 36.4375 18.375 35.5625 17.625 34.875C16.9375 34.125 16.0625 33.75 15 33.75C13.9375 33.75 13.0313 34.125 12.2812 34.875C11.5938 35.5625 11.25 36.4375 11.25 37.5C11.25 38.5625 11.5938 39.4688 12.2812 40.2188C13.0313 40.9063 13.9375 41.25 15 41.25ZM15 75V64.5C15 62.375 15.5313 60.4375 16.5938 58.6875C17.7188 56.875 19.1875 55.5 21 54.5625C24.875 52.625 28.8125 51.1875 32.8125 50.25C36.8125 49.25 40.875 48.75 45 48.75C49.125 48.75 53.1875 49.25 57.1875 50.25C61.1875 51.1875 65.125 52.625 69 54.5625C70.8125 55.5 72.25 56.875 73.3125 58.6875C74.4375 60.4375 75 62.375 75 64.5V75H15ZM22.5 67.5H67.5V64.5C67.5 63.8125 67.3125 63.1875 66.9375 62.625C66.625 62.0625 66.1875 61.625 65.625 61.3125C62.25 59.625 58.8438 58.375 55.4063 57.5625C51.9688 56.6875 48.5 56.25 45 56.25C41.5 56.25 38.0313 56.6875 34.5938 57.5625C31.1563 58.375 27.75 59.625 24.375 61.3125C23.8125 61.625 23.3438 62.0625 22.9688 62.625C22.6562 63.1875 22.5 63.8125 22.5 64.5V67.5ZM45 45C40.875 45 37.3438 43.5312 34.4062 40.5938C31.4688 37.6562 30 34.125 30 30C30 25.875 31.4688 22.3438 34.4062 19.4063C37.3438 16.4688 40.875 15 45 15C49.125 15 52.6562 16.4688 55.5938 19.4063C58.5312 22.3438 60 25.875 60 30C60 34.125 58.5312 37.6562 55.5938 40.5938C52.6562 43.5312 49.125 45 45 45ZM45 37.5C47.0625 37.5 48.8125 36.7812 50.25 35.3438C51.75 33.8438 52.5 32.0625 52.5 30C52.5 27.9375 51.75 26.1875 50.25 24.75C48.8125 23.25 47.0625 22.5 45 22.5C42.9375 22.5 41.1563 23.25 39.6563 24.75C38.2188 26.1875 37.5 27.9375 37.5 30C37.5 32.0625 38.2188 33.8438 39.6563 35.3438C41.1563 36.7812 42.9375 37.5 45 37.5ZM75 48.75C71.875 48.75 69.2188 47.6563 67.0312 45.4688C64.8438 43.2813 63.75 40.625 63.75 37.5C63.75 34.375 64.8438 31.7188 67.0312 29.5312C69.2188 27.3437 71.875 26.25 75 26.25C78.125 26.25 80.7813 27.3437 82.9688 29.5312C85.1563 31.7188 86.25 34.375 86.25 37.5C86.25 40.625 85.1563 43.2813 82.9688 45.4688C80.7813 47.6563 78.125 48.75 75 48.75ZM75 41.25C76.0625 41.25 76.9375 40.9063 77.625 40.2188C78.375 39.4688 78.75 38.5625 78.75 37.5C78.75 36.4375 78.375 35.5625 77.625 34.875C76.9375 34.125 76.0625 33.75 75 33.75C73.9375 33.75 73.0313 34.125 72.2813 34.875C71.5938 35.5625 71.25 36.4375 71.25 37.5C71.25 38.5625 71.5938 39.4688 72.2813 40.2188C73.0313 40.9063 73.9375 41.25 75 41.25ZM78.75 75V52.3125C79.6875 52.625 80.5625 52.9688 81.375 53.3438C82.25 53.7188 83.125 54.125 84 54.5625C85.875 55.5 87.3438 56.875 88.4062 58.6875C89.4688 60.5 90 62.4688 90 64.5938V75H78.75Z" fill="currentColor"/>
</svg>
