<svg xmlns="http://www.w3.org/2000/svg" viewBox="0 0 24 24" width="24" height="24" fill="currentColor">
  <g transform="translate(-90 -148)">
    <path d="M100.6 164.05L107.65 157L106.25 155.6L100.6 161.25L97.75 158.4L96.35 159.8L100.6 164.05ZM95 169C94.45 169 93.9792 168.804 93.5875 168.413C93.1958 168.021 93 167.55 93 167V153C93 152.45 93.1958 151.979 93.5875 151.588C93.9792 151.196 94.45 151 95 151H99.2C99.4167 150.4 99.7792 149.917 100.287 149.55C100.796 149.183 101.367 149 102 149C102.633 149 103.204 149.183 103.713 149.55C104.221 149.917 104.583 150.4 104.8 151H109C109.55 151 110.021 151.196 110.413 151.588C110.804 151.979 111 152.45 111 153V167C111 167.55 110.804 168.021 110.413 168.413C110.021 168.804 109.55 169 109 169H95ZM95 167H109V153H95V167ZM102 152.25C102.217 152.25 102.396 152.179 102.538 152.038C102.679 151.896 102.75 151.717 102.75 151.5C102.75 151.283 102.679 151.104 102.538 150.962C102.396 150.821 102.217 150.75 102 150.75C101.783 150.75 101.604 150.821 101.463 150.962C101.321 151.104 101.25 151.283 101.25 151.5C101.25 151.717 101.321 151.896 101.463 152.038C101.604 152.179 101.783 152.25 102 152.25Z" fill="currentColor"/>
  </g>
</svg>
