<svg xmlns="http://www.w3.org/2000/svg" viewBox="0 0 24 24" width="24" height="24" fill="currentColor">
  <g transform="translate(-336 -1081)">
    <path d="M355.6 1102L349.3 1095.7C348.8 1096.1 348.225 1096.42 347.575 1096.65C346.925 1096.88 346.233 1097 345.5 1097C343.683 1097 342.146 1096.37 340.888 1095.11C339.629 1093.85 339 1092.32 339 1090.5C339 1088.68 339.629 1087.15 340.888 1085.89C342.146 1084.63 343.683 1084 345.5 1084C347.317 1084 348.854 1084.63 350.113 1085.89C351.371 1087.15 352 1088.68 352 1090.5C352 1091.23 351.883 1091.92 351.65 1092.57C351.417 1093.22 351.1 1093.8 350.7 1094.3L357 1100.6L355.6 1102ZM345.5 1095C346.75 1095 347.812 1094.56 348.688 1093.69C349.562 1092.81 350 1091.75 350 1090.5C350 1089.25 349.562 1088.19 348.688 1087.31C347.812 1086.44 346.75 1086 345.5 1086C344.25 1086 343.188 1086.44 342.312 1087.31C341.438 1088.19 341 1089.25 341 1090.5C341 1091.75 341.438 1092.81 342.312 1093.69C343.188 1094.56 344.25 1095 345.5 1095Z" fill="currentColor"/>
  </g>
</svg>
