<svg width="90" height="90" viewBox="0 0 90 90" fill="none" xmlns="http://www.w3.org/2000/svg">
<rect x="0.5" y="0.5" width="89" height="89" fill="currentColor"/>
<mask id="mask0_303_6568" style="mask-type:alpha" maskUnits="userSpaceOnUse" x="0" y="0" width="90" height="90">
<rect width="90" height="90" fill="currentColor"/>
</mask>
<g mask="url(#mask0_303_6568)">
<path d="M52.7812 43.9688C57.3438 40.5938 60.9062 36.8906 63.4688 32.8594C66.0312 28.8281 67.3125 24.8125 67.3125 20.8125C67.3125 18.8125 66.9844 17.3438 66.3281 16.4062C65.6719 15.4688 64.7812 15 63.6562 15C60.7188 15 58.125 17.4844 55.875 22.4531C53.625 27.4219 52.5 33.0313 52.5 39.2813C52.5 40.1562 52.5156 40.9844 52.5469 41.7656C52.5781 42.5469 52.6562 43.2812 52.7812 43.9688ZM11.25 78.75V71.25H18.75V78.75H11.25ZM26.25 78.75V71.25H33.75V78.75H26.25ZM41.25 78.75V71.25H48.75V78.75H41.25ZM56.25 78.75V71.25H63.75V78.75H56.25ZM71.25 78.75V71.25H78.75V78.75H71.25ZM12.75 63.75L7.5 58.5L13.5 52.5L7.5 46.5L12.75 41.25L18.75 47.25L24.75 41.25L30 46.5L24 52.5L30 58.5L24.75 63.75L18.75 57.75L12.75 63.75ZM57.9375 60C56.0625 60 54.3438 59.6406 52.7812 58.9219C51.2188 58.2031 49.875 57.0313 48.75 55.4063C47.1875 56.2813 45.5781 57.0625 43.9219 57.75C42.2656 58.4375 40.5625 59.125 38.8125 59.8125L36.1875 52.7812C37.9375 52.1562 39.6094 51.4844 41.2031 50.7656C42.7969 50.0469 44.3438 49.2812 45.8438 48.4688C45.5312 47.0938 45.2969 45.5938 45.1406 43.9688C44.9844 42.3438 44.9062 40.5938 44.9062 38.7188C44.9062 29.7187 46.6875 22.2656 50.25 16.3594C53.8125 10.4531 58.2812 7.5 63.6562 7.5C66.9062 7.5 69.5625 8.70313 71.625 11.1094C73.6875 13.5156 74.7188 16.875 74.7188 21.1875C74.7188 26.5625 73.0156 31.875 69.6094 37.125C66.2031 42.375 61.4688 47.0938 55.4063 51.2812C55.8438 51.7188 56.2969 52.0469 56.7656 52.2656C57.2344 52.4844 57.7188 52.5938 58.2188 52.5938C59.8438 52.5938 61.7344 51.5625 63.8906 49.5C66.0469 47.4375 68 44.7188 69.75 41.3438L76.5938 44.5312C76.1563 45.5938 75.8125 46.875 75.5625 48.375C75.3125 49.875 75.3438 51.1875 75.6563 52.3125C76.2813 52 77.0156 51.4688 77.8594 50.7188C78.7031 49.9688 79.5625 49.0313 80.4375 47.9063L86.3438 52.5C84.7188 54.75 82.8438 56.5625 80.7188 57.9375C78.5938 59.3125 76.625 60 74.8125 60C73.5 60 72.3281 59.6094 71.2969 58.8281C70.2656 58.0469 69.4063 56.8438 68.7188 55.2188C66.9688 56.7812 65.1875 57.9688 63.375 58.7812C61.5625 59.5938 59.75 60 57.9375 60Z" fill="currentColor"/>
</g>
</svg>
