<svg xmlns="http://www.w3.org/2000/svg" viewBox="0 0 24 24" width="24" height="24" fill="currentColor">
  <g transform="translate(-108 -522)">
    <path d="M114 544V539.75C113.35 539.467 112.779 539.088 112.288 538.613C111.796 538.137 111.379 537.6 111.038 537C110.696 536.4 110.438 535.758 110.263 535.075C110.088 534.392 110 533.7 110 533C110 530.367 110.933 528.208 112.8 526.525C114.667 524.842 117.067 524 120 524C122.933 524 125.333 524.842 127.2 526.525C129.067 528.208 130 530.367 130 533C130 533.7 129.913 534.392 129.738 535.075C129.563 535.758 129.304 536.4 128.962 537C128.621 537.6 128.204 538.137 127.712 538.613C127.221 539.088 126.65 539.467 126 539.75V544H114ZM116 542H117V540H119V542H121V540H123V542H124V538.45C124.633 538.3 125.196 538.05 125.688 537.7C126.179 537.35 126.596 536.933 126.938 536.45C127.279 535.967 127.542 535.433 127.725 534.85C127.908 534.267 128 533.65 128 533C128 530.917 127.263 529.229 125.788 527.938C124.312 526.646 122.383 526 120 526C117.617 526 115.688 526.646 114.213 527.938C112.738 529.229 112 530.917 112 533C112 533.65 112.092 534.267 112.275 534.85C112.458 535.433 112.721 535.967 113.062 536.45C113.404 536.933 113.825 537.35 114.325 537.7C114.825 538.05 115.383 538.3 116 538.45V542ZM118.5 537H121.5L120 534L118.5 537ZM116.5 535C117.05 535 117.521 534.804 117.912 534.413C118.304 534.021 118.5 533.55 118.5 533C118.5 532.45 118.304 531.979 117.912 531.588C117.521 531.196 117.05 531 116.5 531C115.95 531 115.479 531.196 115.088 531.588C114.696 531.979 114.5 532.45 114.5 533C114.5 533.55 114.696 534.021 115.088 534.413C115.479 534.804 115.95 535 116.5 535ZM123.5 535C124.05 535 124.521 534.804 124.913 534.413C125.304 534.021 125.5 533.55 125.5 533C125.5 532.45 125.304 531.979 124.913 531.588C124.521 531.196 124.05 531 123.5 531C122.95 531 122.479 531.196 122.088 531.588C121.696 531.979 121.5 532.45 121.5 533C121.5 533.55 121.696 534.021 122.088 534.413C122.479 534.804 122.95 535 123.5 535Z" fill="currentColor"/>
  </g>
</svg>
