<svg xmlns="http://www.w3.org/2000/svg" viewBox="0 0 24 24" width="24" height="24" fill="currentColor">
  <g transform="translate(-182 -1081)">
    <path d="M200 1102H189V1089L196 1082L197.25 1083.25C197.367 1083.37 197.463 1083.52 197.538 1083.73C197.613 1083.93 197.65 1084.12 197.65 1084.3V1084.65L196.55 1089H203C203.533 1089 204 1089.2 204.4 1089.6C204.8 1090 205 1090.47 205 1091V1093C205 1093.12 204.983 1093.24 204.95 1093.38C204.917 1093.51 204.883 1093.63 204.85 1093.75L201.85 1100.8C201.7 1101.13 201.45 1101.42 201.1 1101.65C200.75 1101.88 200.383 1102 200 1102ZM191 1100H200L203 1093V1091H194L195.35 1085.5L191 1089.85V1100ZM189 1089V1091H186V1100H189V1102H184V1089H189Z" fill="currentColor"/>
  </g>
</svg>
