<svg xmlns="http://www.w3.org/2000/svg" viewBox="0 0 24 24" width="24" height="24" fill="currentColor">
  <g transform="translate(-225 -1081)">
    <path d="M231 1084H242V1097L235 1104L233.75 1102.75C233.633 1102.63 233.537 1102.48 233.463 1102.27C233.388 1102.07 233.35 1101.88 233.35 1101.7V1101.35L234.45 1097H228C227.467 1097 227 1096.8 226.6 1096.4C226.2 1096 226 1095.53 226 1095V1093C226 1092.88 226.017 1092.76 226.05 1092.62C226.083 1092.49 226.117 1092.37 226.15 1092.25L229.15 1085.2C229.3 1084.87 229.55 1084.58 229.9 1084.35C230.25 1084.12 230.617 1084 231 1084ZM240 1086H231L228 1093V1095H237L235.65 1100.5L240 1096.15V1086ZM242 1097V1095H245V1086H242V1084H247V1097H242Z" fill="currentColor"/>
  </g>
</svg>
