<svg width="14" height="14" viewBox="0 0 14 14" fill="none" xmlns="http://www.w3.org/2000/svg">
<path d="M4.83609 14L3.62783 11.8665L1.33609 11.3339L1.55826 8.8687L0 7L1.55826 5.13435L1.33609 2.66913L3.62783 2.13652L4.83609 0L7 0.967826L9.16391 0L10.3722 2.13348L12.6639 2.66609L12.4417 5.1313L14 6.99696L12.4417 8.86261L12.6639 11.3278L10.3722 11.8604L9.16391 13.9939L7 13.0261L4.83609 13.9939V14ZM5.37783 12.2987L7 11.5652L8.65565 12.2987L9.54739 10.6978L11.2974 10.2657L11.1391 8.4L12.317 7L11.1391 5.56652L11.2974 3.70087L9.54739 3.30217L8.62522 1.7013L7.00304 2.43478L5.34739 1.7013L4.45565 3.30217L2.70565 3.70087L2.86391 5.56652L1.68609 7L2.86391 8.4L2.70565 10.2991L4.45565 10.6978L5.37783 12.2987ZM6.33043 9.36783L9.92478 5.6L9.03304 4.63217L6.32739 7.46565L4.95783 6.06565L4.06609 7L6.32435 9.36783H6.33043Z" fill="#202128"/>
</svg>
