<svg width="23" height="23" viewBox="0 0 23 23" fill="none" xmlns="http://www.w3.org/2000/svg">
<mask id="mask0_260_6640" style="mask-type:alpha" maskUnits="userSpaceOnUse" x="0" y="0" width="23" height="23">
<rect width="23" height="23" fill="currentColor"/>
</mask>
<g mask="url(#mask0_260_6640)">
<path d="M11.5 15.3333C12.698 15.3333 13.7162 14.914 14.5547 14.0754C15.3933 13.2369 15.8125 12.2187 15.8125 11.0208C15.8125 9.82283 15.3933 8.80461 14.5547 7.96606C13.7162 7.12752 12.698 6.70825 11.5 6.70825C10.3021 6.70825 9.28389 7.12752 8.44535 7.96606C7.60681 8.80461 7.18754 9.82283 7.18754 11.0208C7.18754 12.2187 7.60681 13.2369 8.44535 14.0754C9.28389 14.914 10.3021 15.3333 11.5 15.3333ZM11.5 13.6083C10.7813 13.6083 10.1704 13.3567 9.66723 12.8536C9.1641 12.3504 8.91254 11.7395 8.91254 11.0208C8.91254 10.302 9.1641 9.69106 9.66723 9.18794C10.1704 8.68481 10.7813 8.43325 11.5 8.43325C12.2188 8.43325 12.8297 8.68481 13.3329 9.18794C13.836 9.69106 14.0875 10.302 14.0875 11.0208C14.0875 11.7395 13.836 12.3504 13.3329 12.8536C12.8297 13.3567 12.2188 13.6083 11.5 13.6083ZM11.5 18.2083C9.1681 18.2083 7.04379 17.5574 5.12712 16.2556C3.21046 14.9539 1.82087 13.2089 0.958374 11.0208C1.82087 8.83256 3.21046 7.08759 5.12712 5.78586C7.04379 4.48412 9.1681 3.83325 11.5 3.83325C13.832 3.83325 15.9563 4.48412 17.873 5.78586C19.7896 7.08759 21.1792 8.83256 22.0417 11.0208C21.1792 13.2089 19.7896 14.9539 17.873 16.2556C15.9563 17.5574 13.832 18.2083 11.5 18.2083ZM11.5 16.2916C13.3049 16.2916 14.962 15.8164 16.4714 14.8661C17.9808 13.9157 19.1348 12.6339 19.9334 11.0208C19.1348 9.40756 17.9808 8.12579 16.4714 7.17544C14.962 6.22509 13.3049 5.74992 11.5 5.74992C9.69518 5.74992 8.03806 6.22509 6.52869 7.17544C5.01931 8.12579 3.86532 9.40756 3.06671 11.0208C3.86532 12.6339 5.01931 13.9157 6.52869 14.8661C8.03806 15.8164 9.69518 16.2916 11.5 16.2916Z" fill="currentColor"/>
</g>
</svg>
