<svg xmlns="http://www.w3.org/2000/svg" viewBox="0 0 24 24" width="24" height="24" fill="currentColor">
  <g transform="translate(-559 -1029)">
    <path d="M565 1049C564.45 1049 563.979 1048.8 563.588 1048.41C563.196 1048.02 563 1047.55 563 1047C563 1046.45 563.196 1045.98 563.588 1045.59C563.979 1045.2 564.45 1045 565 1045C565.55 1045 566.021 1045.2 566.413 1045.59C566.804 1045.98 567 1046.45 567 1047C567 1047.55 566.804 1048.02 566.413 1048.41C566.021 1048.8 565.55 1049 565 1049ZM565 1043C564.45 1043 563.979 1042.8 563.588 1042.41C563.196 1042.02 563 1041.55 563 1041C563 1040.45 563.196 1039.98 563.588 1039.59C563.979 1039.2 564.45 1039 565 1039C565.55 1039 566.021 1039.2 566.413 1039.59C566.804 1039.98 567 1040.45 567 1041C567 1041.55 566.804 1042.02 566.413 1042.41C566.021 1042.8 565.55 1043 565 1043ZM565 1037C564.45 1037 563.979 1036.8 563.588 1036.41C563.196 1036.02 563 1035.55 563 1035C563 1034.45 563.196 1033.98 563.588 1033.59C563.979 1033.2 564.45 1033 565 1033C565.55 1033 566.021 1033.2 566.413 1033.59C566.804 1033.98 567 1034.45 567 1035C567 1035.55 566.804 1036.02 566.413 1036.41C566.021 1036.8 565.55 1037 565 1037ZM571 1037C570.45 1037 569.979 1036.8 569.588 1036.41C569.196 1036.02 569 1035.55 569 1035C569 1034.45 569.196 1033.98 569.588 1033.59C569.979 1033.2 570.45 1033 571 1033C571.55 1033 572.021 1033.2 572.413 1033.59C572.804 1033.98 573 1034.45 573 1035C573 1035.55 572.804 1036.02 572.413 1036.41C572.021 1036.8 571.55 1037 571 1037ZM577 1037C576.45 1037 575.979 1036.8 575.588 1036.41C575.196 1036.02 575 1035.55 575 1035C575 1034.45 575.196 1033.98 575.588 1033.59C575.979 1033.2 576.45 1033 577 1033C577.55 1033 578.021 1033.2 578.413 1033.59C578.804 1033.98 579 1034.45 579 1035C579 1035.55 578.804 1036.02 578.413 1036.41C578.021 1036.8 577.55 1037 577 1037ZM571 1043C570.45 1043 569.979 1042.8 569.588 1042.41C569.196 1042.02 569 1041.55 569 1041C569 1040.45 569.196 1039.98 569.588 1039.59C569.979 1039.2 570.45 1039 571 1039C571.55 1039 572.021 1039.2 572.413 1039.59C572.804 1039.98 573 1040.45 573 1041C573 1041.55 572.804 1042.02 572.413 1042.41C572.021 1042.8 571.55 1043 571 1043ZM572 1049V1045.93L577.525 1040.43C577.675 1040.28 577.842 1040.17 578.025 1040.1C578.208 1040.03 578.392 1040 578.575 1040C578.775 1040 578.967 1040.04 579.15 1040.11C579.333 1040.19 579.5 1040.3 579.65 1040.45L580.575 1041.38C580.708 1041.52 580.812 1041.69 580.888 1041.88C580.963 1042.06 581 1042.24 581 1042.43C581 1042.61 580.967 1042.8 580.9 1042.99C580.833 1043.18 580.725 1043.35 580.575 1043.5L575.075 1049H572ZM573.5 1047.5H574.45L577.475 1044.45L577.025 1043.98L576.55 1043.53L573.5 1046.55V1047.5ZM577.025 1043.98L576.55 1043.53L577.475 1044.45L577.025 1043.98Z" fill="currentColor"/>
  </g>
</svg>
