<svg xmlns="http://www.w3.org/2000/svg" viewBox="0 0 24 24" width="24" height="24" fill="currentColor">
  <g transform="translate(-402 -1029)">
    <path d="M411.9 1044.5L414 1042.4L416.1 1044.5L417.5 1043.1L415.4 1041L417.5 1038.9L416.1 1037.5L414 1039.6L411.9 1037.5L410.5 1038.9L412.6 1041L410.5 1043.1L411.9 1044.5ZM414 1051C411.683 1050.42 409.771 1049.09 408.263 1047.01C406.754 1044.94 406 1042.63 406 1040.1V1034L414 1031L422 1034V1040.1C422 1042.63 421.246 1044.94 419.738 1047.01C418.229 1049.09 416.317 1050.42 414 1051ZM414 1048.9C415.733 1048.35 417.167 1047.25 418.3 1045.6C419.433 1043.95 420 1042.12 420 1040.1V1035.38L414 1033.12L408 1035.38V1040.1C408 1042.12 408.567 1043.95 409.7 1045.6C410.833 1047.25 412.267 1048.35 414 1048.9Z" fill="currentColor"/>
  </g>
</svg>
