<svg xmlns="http://www.w3.org/2000/svg" viewBox="0 0 24 24" width="24" height="24" fill="currentColor">
  <g transform="translate(-166 -430)">
    <path d="M176.95 445.55L182.6 439.9L181.175 438.475L176.95 442.7L174.85 440.6L173.425 442.025L176.95 445.55ZM178 452C175.683 451.417 173.771 450.088 172.263 448.013C170.754 445.938 170 443.633 170 441.1V435L178 432L186 435V441.1C186 443.633 185.246 445.938 183.738 448.013C182.229 450.088 180.317 451.417 178 452ZM178 449.9C179.733 449.35 181.167 448.25 182.3 446.6C183.433 444.95 184 443.117 184 441.1V436.375L178 434.125L172 436.375V441.1C172 443.117 172.567 444.95 173.7 446.6C174.833 448.25 176.267 449.35 178 449.9Z" fill="currentColor"/>
  </g>
</svg>
