<svg xmlns="http://www.w3.org/2000/svg" viewBox="0 0 24 24" width="24" height="24" fill="currentColor">
  <g transform="translate(-280 -430)">
    <path d="M289.9 445.5L292 443.4L294.1 445.5L295.5 444.1L293.4 442L295.5 439.9L294.1 438.5L292 440.6L289.9 438.5L288.5 439.9L290.6 442L288.5 444.1L289.9 445.5ZM292 452C289.683 451.417 287.771 450.088 286.263 448.013C284.754 445.938 284 443.633 284 441.1V435L292 432L300 435V441.1C300 443.633 299.246 445.938 297.738 448.013C296.229 450.088 294.317 451.417 292 452ZM292 449.9C293.733 449.35 295.167 448.25 296.3 446.6C297.433 444.95 298 443.117 298 441.1V436.375L292 434.125L286 436.375V441.1C286 443.117 286.567 444.95 287.7 446.6C288.833 448.25 290.267 449.35 292 449.9Z" fill="currentColor"/>
  </g>
</svg>
