<svg xmlns="http://www.w3.org/2000/svg" viewBox="0 0 24 24" width="24" height="24" fill="currentColor">
  <g transform="translate(-663 -354)">
    <path d="M668 376C667.45 376 666.979 375.804 666.588 375.413C666.196 375.021 666 374.55 666 374V358C666 357.45 666.196 356.979 666.588 356.588C666.979 356.196 667.45 356 668 356H677C677.55 356 678.021 356.196 678.413 356.588C678.804 356.979 679 357.45 679 358V360.675L677 362.675V358H668V374H673.675L675.675 376H668ZM672 372V368H674.5L678 364.5V375.5L674.5 372H672ZM680 372.8V367.175C680.583 367.375 681.062 367.733 681.438 368.25C681.812 368.767 682 369.35 682 370C682 370.65 681.812 371.229 681.438 371.738C681.062 372.246 680.583 372.6 680 372.8ZM680 376.925V374.925C681.167 374.675 682.125 374.092 682.875 373.175C683.625 372.258 684 371.2 684 370C684 368.8 683.625 367.742 682.875 366.825C682.125 365.908 681.167 365.333 680 365.1V363.1C681.733 363.333 683.167 364.104 684.3 365.413C685.433 366.721 686 368.25 686 370C686 371.75 685.433 373.279 684.3 374.588C683.167 375.896 681.733 376.675 680 376.925ZM672.5 361C672.783 361 673.021 360.904 673.213 360.713C673.404 360.521 673.5 360.283 673.5 360C673.5 359.717 673.404 359.479 673.213 359.288C673.021 359.096 672.783 359 672.5 359C672.217 359 671.979 359.096 671.787 359.288C671.596 359.479 671.5 359.717 671.5 360C671.5 360.283 671.596 360.521 671.787 360.713C671.979 360.904 672.217 361 672.5 361Z" fill="currentColor"/>
  </g>
</svg>
