<svg xmlns="http://www.w3.org/2000/svg" viewBox="0 0 24 24" width="24" height="24" fill="currentColor">
  <g transform="translate(-812 -354)">
    <path d="M824 377V375H831V374H827V366H831V365C831 363.067 830.317 361.417 828.95 360.05C827.583 358.683 825.933 358 824 358C822.067 358 820.417 358.683 819.05 360.05C817.683 361.417 817 363.067 817 365V366H821V374H817C816.45 374 815.979 373.804 815.588 373.413C815.196 373.021 815 372.55 815 372V365C815 363.767 815.238 362.604 815.713 361.513C816.188 360.421 816.833 359.467 817.65 358.65C818.467 357.833 819.421 357.188 820.513 356.713C821.604 356.238 822.767 356 824 356C825.233 356 826.396 356.238 827.488 356.713C828.579 357.188 829.533 357.833 830.35 358.65C831.167 359.467 831.812 360.421 832.288 361.513C832.763 362.604 833 363.767 833 365V375C833 375.55 832.804 376.021 832.413 376.413C832.021 376.804 831.55 377 831 377H824ZM817 372H819V368H817V372ZM829 372H831V368H829V372Z" fill="currentColor"/>
  </g>
</svg>
