<svg xmlns="http://www.w3.org/2000/svg" viewBox="0 0 24 24" width="24" height="24" fill="currentColor">
  <g transform="translate(-344 -57)">
    <path d="M362.95 79C360.867 79 358.808 78.5458 356.775 77.6375C354.742 76.7292 352.892 75.4417 351.225 73.775C349.558 72.1083 348.271 70.2583 347.363 68.225C346.454 66.1917 346 64.1333 346 62.05C346 61.75 346.1 61.5 346.3 61.3C346.5 61.1 346.75 61 347.05 61H351.1C351.333 61 351.542 61.0792 351.725 61.2375C351.908 61.3958 352.017 61.5833 352.05 61.8L352.7 65.3C352.733 65.5667 352.725 65.7917 352.675 65.975C352.625 66.1583 352.533 66.3167 352.4 66.45L349.975 68.9C350.308 69.5167 350.704 70.1125 351.162 70.6875C351.621 71.2625 352.125 71.8167 352.675 72.35C353.192 72.8667 353.733 73.3458 354.3 73.7875C354.867 74.2292 355.467 74.6333 356.1 75L358.45 72.65C358.6 72.5 358.796 72.3875 359.038 72.3125C359.279 72.2375 359.517 72.2167 359.75 72.25L363.2 72.95C363.433 73.0167 363.625 73.1375 363.775 73.3125C363.925 73.4875 364 73.6833 364 73.9V77.95C364 78.25 363.9 78.5 363.7 78.7C363.5 78.9 363.25 79 362.95 79ZM349.025 67L350.675 65.35L350.25 63H348.025C348.108 63.6833 348.225 64.3583 348.375 65.025C348.525 65.6917 348.742 66.35 349.025 67ZM357.975 75.95C358.625 76.2333 359.288 76.4583 359.963 76.625C360.638 76.7917 361.317 76.9 362 76.95V74.75L359.65 74.275L357.975 75.95ZM361 69C359.617 69 358.438 68.5125 357.463 67.5375C356.488 66.5625 356 65.3833 356 64C356 62.6167 356.488 61.4375 357.463 60.4625C358.438 59.4875 359.617 59 361 59C362.383 59 363.562 59.4875 364.538 60.4625C365.513 61.4375 366 62.6167 366 64C366 65.3833 365.513 66.5625 364.538 67.5375C363.562 68.5125 362.383 69 361 69ZM360.5 67H361.5V63H360.5V67ZM361 62C361.133 62 361.25 61.95 361.35 61.85C361.45 61.75 361.5 61.6333 361.5 61.5C361.5 61.3667 361.45 61.25 361.35 61.15C361.25 61.05 361.133 61 361 61C360.867 61 360.75 61.05 360.65 61.15C360.55 61.25 360.5 61.3667 360.5 61.5C360.5 61.6333 360.55 61.75 360.65 61.85C360.75 61.95 360.867 62 361 62Z" fill="currentColor"/>
  </g>
</svg>
