<svg xmlns="http://www.w3.org/2000/svg" viewBox="0 0 24 24" width="24" height="24" fill="currentColor">
  <g transform="translate(-78 -1081)">
    <path d="M82.4 1102L81 1100.6L88.525 1093.05L84 1091.93L88.95 1088.85L88.525 1083L93 1086.78L98.4 1084.58L96.225 1090L100 1094.45L94.15 1094.05L91.05 1099L89.925 1094.48L82.4 1102ZM83 1089L81 1087L83 1085L85 1087L83 1089ZM91.875 1093.93L93.075 1091.95L95.4 1092.12L93.9 1090.35L94.775 1088.2L92.625 1089.08L90.85 1087.6L91.025 1089.9L89.05 1091.12L91.3 1091.68L91.875 1093.93ZM96 1102L94 1100L96 1098L98 1100L96 1102Z" fill="currentColor"/>
  </g>
</svg>
