<svg xmlns="http://www.w3.org/2000/svg" viewBox="0 0 24 24" width="24" height="24" fill="currentColor">
  <g transform="translate(-764 -354)">
    <path d="M773.575 375C772.358 375 771.35 374.546 770.55 373.638C769.75 372.729 769.433 371.675 769.6 370.475L770.975 360.175C771.008 359.992 771.079 359.829 771.187 359.688C771.296 359.546 771.433 359.442 771.6 359.375L779.5 356.225C779.8 356.092 780.092 356.113 780.375 356.288C780.658 356.463 780.817 356.717 780.85 357.05L782.45 370.525C782.583 371.725 782.258 372.771 781.475 373.663C780.692 374.554 779.7 375 778.5 375H773.575ZM773.575 373H778.5C779.1 373 779.6 372.775 780 372.325C780.4 371.875 780.558 371.35 780.475 370.75L780.15 368H771.975L771.6 370.725C771.517 371.325 771.675 371.854 772.075 372.313C772.475 372.771 772.975 373 773.575 373ZM772.9 361.025L772.225 366H779.9L779.025 358.55L772.9 361.025Z" fill="currentColor"/>
  </g>
</svg>
