<svg xmlns="http://www.w3.org/2000/svg" viewBox="0 0 24 24" width="24" height="24" fill="currentColor">
  <g transform="translate(-456 -426)">
    <path d="M468 448C466.617 448 465.317 447.737 464.1 447.212C462.883 446.688 461.825 445.975 460.925 445.075C460.025 444.175 459.312 443.117 458.788 441.9C458.262 440.683 458 439.383 458 438H460C460 439.1 460.208 440.137 460.625 441.113C461.042 442.088 461.613 442.938 462.338 443.663C463.062 444.388 463.913 444.963 464.888 445.388C465.863 445.812 466.9 446.025 468 446.025C470.233 446.025 472.125 445.25 473.675 443.7C475.225 442.15 476 440.258 476 438.025C476 435.792 475.225 433.9 473.675 432.35C472.125 430.8 470.233 430.025 468 430.025C466.517 430.025 465.171 430.387 463.963 431.112C462.754 431.838 461.8 432.8 461.1 434H464V436H458V430H460V432C460.917 430.783 462.067 429.812 463.45 429.087C464.833 428.362 466.35 428 468 428C469.383 428 470.683 428.262 471.9 428.788C473.117 429.312 474.175 430.025 475.075 430.925C475.975 431.825 476.688 432.883 477.212 434.1C477.737 435.317 478 436.617 478 438C478 439.383 477.737 440.683 477.212 441.9C476.688 443.117 475.975 444.175 475.075 445.075C474.175 445.975 473.117 446.688 471.9 447.212C470.683 447.737 469.383 448 468 448ZM466 442C465.717 442 465.479 441.904 465.287 441.713C465.096 441.521 465 441.283 465 441V438C465 437.717 465.096 437.479 465.287 437.288C465.479 437.096 465.717 437 466 437V436C466 435.45 466.196 434.979 466.588 434.588C466.979 434.196 467.45 434 468 434C468.55 434 469.021 434.196 469.413 434.588C469.804 434.979 470 435.45 470 436V437C470.283 437 470.521 437.096 470.713 437.288C470.904 437.479 471 437.717 471 438V441C471 441.283 470.904 441.521 470.713 441.713C470.521 441.904 470.283 442 470 442H466ZM467 437H469V436C469 435.717 468.904 435.479 468.713 435.287C468.521 435.096 468.283 435 468 435C467.717 435 467.479 435.096 467.288 435.287C467.096 435.479 467 435.717 467 436V437Z" fill="currentColor"/>
  </g>
</svg>
