<svg xmlns="http://www.w3.org/2000/svg" viewBox="0 0 24 24" width="24" height="24" fill="currentColor">
  <g transform="translate(-325 -148)">
    <path d="M336.875 168C336.942 168 337.008 167.983 337.075 167.95C337.142 167.917 337.192 167.883 337.225 167.85L345.425 159.65C345.625 159.45 345.771 159.225 345.862 158.975C345.954 158.725 346 158.475 346 158.225C346 157.958 345.954 157.704 345.862 157.463C345.771 157.221 345.625 157.008 345.425 156.825L341.175 152.575C340.992 152.375 340.779 152.229 340.537 152.138C340.296 152.046 340.042 152 339.775 152C339.525 152 339.275 152.046 339.025 152.138C338.775 152.229 338.55 152.375 338.35 152.575L338.075 152.85L339.925 154.725C340.175 154.958 340.358 155.225 340.475 155.525C340.592 155.825 340.65 156.142 340.65 156.475C340.65 157.175 340.412 157.763 339.937 158.238C339.462 158.713 338.875 158.95 338.175 158.95C337.842 158.95 337.521 158.892 337.212 158.775C336.904 158.658 336.633 158.483 336.4 158.25L334.525 156.4L330.15 160.775C330.1 160.825 330.062 160.879 330.037 160.938C330.012 160.996 330 161.058 330 161.125C330 161.258 330.05 161.379 330.15 161.488C330.25 161.596 330.367 161.65 330.5 161.65C330.567 161.65 330.633 161.633 330.7 161.6C330.767 161.567 330.817 161.533 330.85 161.5L334.25 158.1L335.65 159.5L332.275 162.9C332.225 162.95 332.187 163.004 332.162 163.062C332.137 163.121 332.125 163.183 332.125 163.25C332.125 163.383 332.175 163.5 332.275 163.6C332.375 163.7 332.492 163.75 332.625 163.75C332.692 163.75 332.758 163.733 332.825 163.7C332.892 163.667 332.942 163.633 332.975 163.6L336.375 160.225L337.775 161.625L334.4 165.025C334.35 165.058 334.312 165.108 334.287 165.175C334.262 165.242 334.25 165.308 334.25 165.375C334.25 165.508 334.3 165.625 334.4 165.725C334.5 165.825 334.617 165.875 334.75 165.875C334.817 165.875 334.879 165.863 334.937 165.838C334.996 165.813 335.05 165.775 335.1 165.725L338.5 162.35L339.9 163.75L336.5 167.15C336.45 167.2 336.412 167.254 336.387 167.312C336.362 167.371 336.35 167.433 336.35 167.5C336.35 167.633 336.404 167.75 336.512 167.85C336.621 167.95 336.742 168 336.875 168ZM336.85 170C336.233 170 335.687 169.796 335.212 169.388C334.737 168.979 334.458 168.467 334.375 167.85C333.808 167.767 333.333 167.533 332.95 167.15C332.567 166.767 332.333 166.292 332.25 165.725C331.683 165.642 331.212 165.404 330.837 165.012C330.462 164.621 330.233 164.15 330.15 163.6C329.517 163.517 329 163.242 328.6 162.775C328.2 162.308 328 161.758 328 161.125C328 160.792 328.062 160.471 328.187 160.163C328.312 159.854 328.492 159.583 328.725 159.35L334.525 153.575L337.8 156.85C337.833 156.9 337.883 156.938 337.95 156.963C338.017 156.988 338.083 157 338.15 157C338.3 157 338.425 156.954 338.525 156.863C338.625 156.771 338.675 156.65 338.675 156.5C338.675 156.433 338.662 156.367 338.637 156.3C338.612 156.233 338.575 156.183 338.525 156.15L334.95 152.575C334.767 152.375 334.554 152.229 334.312 152.138C334.071 152.046 333.817 152 333.55 152C333.3 152 333.05 152.046 332.8 152.138C332.55 152.229 332.325 152.375 332.125 152.575L328.6 156.125C328.45 156.275 328.325 156.45 328.225 156.65C328.125 156.85 328.058 157.05 328.025 157.25C327.992 157.45 327.992 157.654 328.025 157.863C328.058 158.071 328.125 158.267 328.225 158.45L326.775 159.9C326.492 159.517 326.283 159.096 326.15 158.637C326.017 158.179 325.967 157.717 326 157.25C326.033 156.783 326.15 156.329 326.35 155.888C326.55 155.446 326.825 155.05 327.175 154.7L330.7 151.175C331.1 150.792 331.546 150.5 332.037 150.3C332.529 150.1 333.033 150 333.55 150C334.067 150 334.571 150.1 335.062 150.3C335.554 150.5 335.992 150.792 336.375 151.175L336.65 151.45L336.925 151.175C337.325 150.792 337.771 150.5 338.262 150.3C338.754 150.1 339.258 150 339.775 150C340.292 150 340.796 150.1 341.287 150.3C341.779 150.5 342.217 150.792 342.6 151.175L346.825 155.4C347.208 155.783 347.5 156.225 347.7 156.725C347.9 157.225 348 157.733 348 158.25C348 158.767 347.9 159.271 347.7 159.762C347.5 160.254 347.208 160.692 346.825 161.075L338.625 169.25C338.392 169.483 338.121 169.667 337.812 169.8C337.504 169.933 337.183 170 336.85 170Z" fill="currentColor"/>
  </g>
</svg>
