<svg xmlns="http://www.w3.org/2000/svg" viewBox="0 0 24 24" width="24" height="24" fill="currentColor">
  <g transform="translate(-622 -426)">
    <path d="M633 447C631.333 447 629.917 446.417 628.75 445.25C627.583 444.083 627 442.667 627 441V435L632 440L630.6 441.425L629 439.825V441C629 442.1 629.392 443.042 630.175 443.825C630.958 444.608 631.9 445 633 445C634.1 445 635.042 444.608 635.825 443.825C636.608 443.042 637 442.1 637 441V437.825C636.4 437.592 635.917 437.221 635.55 436.713C635.183 436.204 635 435.633 635 435C635 434.367 635.183 433.796 635.55 433.287C635.917 432.779 636.4 432.408 637 432.175V428H639V432.175C639.6 432.408 640.083 432.779 640.45 433.287C640.817 433.796 641 434.367 641 435C641 435.633 640.817 436.208 640.45 436.725C640.083 437.242 639.6 437.608 639 437.825V441C639 442.667 638.417 444.083 637.25 445.25C636.083 446.417 634.667 447 633 447ZM638 436C638.283 436 638.521 435.904 638.713 435.713C638.904 435.521 639 435.283 639 435C639 434.717 638.904 434.479 638.713 434.287C638.521 434.096 638.283 434 638 434C637.717 434 637.479 434.096 637.288 434.287C637.096 434.479 637 434.717 637 435C637 435.283 637.096 435.521 637.288 435.713C637.479 435.904 637.717 436 638 436Z" fill="currentColor"/>
  </g>
</svg>
