<svg xmlns="http://www.w3.org/2000/svg" viewBox="0 0 24 24" width="24" height="24" fill="currentColor">
  <g transform="translate(-199 -60)">
    <path d="M215 71V68H212V66H215V63H217V66H220V68H217V71H215ZM218.95 81C216.867 81 214.808 80.5458 212.775 79.6375C210.742 78.7292 208.892 77.4417 207.225 75.775C205.558 74.1083 204.271 72.2583 203.363 70.225C202.454 68.1917 202 66.1333 202 64.05C202 63.75 202.1 63.5 202.3 63.3C202.5 63.1 202.75 63 203.05 63H207.1C207.333 63 207.542 63.0792 207.725 63.2375C207.908 63.3958 208.017 63.5833 208.05 63.8L208.7 67.3C208.733 67.5667 208.725 67.7917 208.675 67.975C208.625 68.1583 208.533 68.3167 208.4 68.45L205.975 70.9C206.308 71.5167 206.704 72.1125 207.162 72.6875C207.621 73.2625 208.125 73.8167 208.675 74.35C209.192 74.8667 209.733 75.3458 210.3 75.7875C210.867 76.2292 211.467 76.6333 212.1 77L214.45 74.65C214.6 74.5 214.796 74.3875 215.038 74.3125C215.279 74.2375 215.517 74.2167 215.75 74.25L219.2 74.95C219.433 75.0167 219.625 75.1375 219.775 75.3125C219.925 75.4875 220 75.6833 220 75.9V79.95C220 80.25 219.9 80.5 219.7 80.7C219.5 80.9 219.25 81 218.95 81ZM205.025 69L206.675 67.35L206.25 65H204.025C204.108 65.6833 204.225 66.3583 204.375 67.025C204.525 67.6917 204.742 68.35 205.025 69ZM213.975 77.95C214.625 78.2333 215.288 78.4583 215.963 78.625C216.638 78.7917 217.317 78.9 218 78.95V76.75L215.65 76.275L213.975 77.95Z" fill="currentColor"/>
  </g>
</svg>
