<svg xmlns="http://www.w3.org/2000/svg" viewBox="0 0 24 24" width="24" height="24" fill="currentColor">
  <g transform="translate(-217 -233)">
    <path d="M229 247C228.167 247 227.458 246.708 226.875 246.125C226.292 245.542 226 244.833 226 244V238C226 237.167 226.292 236.458 226.875 235.875C227.458 235.292 228.167 235 229 235C229.833 235 230.542 235.292 231.125 235.875C231.708 236.458 232 237.167 232 238V244C232 244.833 231.708 245.542 231.125 246.125C230.542 246.708 229.833 247 229 247ZM228 254V250.925C226.267 250.692 224.833 249.917 223.7 248.6C222.567 247.283 222 245.75 222 244H224C224 245.383 224.488 246.562 225.463 247.538C226.438 248.513 227.617 249 229 249C230.383 249 231.562 248.513 232.538 247.538C233.513 246.562 234 245.383 234 244H236C236 245.75 235.433 247.283 234.3 248.6C233.167 249.917 231.733 250.692 230 250.925V254H228ZM229 245C229.283 245 229.521 244.904 229.713 244.713C229.904 244.521 230 244.283 230 244V238C230 237.717 229.904 237.479 229.713 237.288C229.521 237.096 229.283 237 229 237C228.717 237 228.479 237.096 228.287 237.288C228.096 237.479 228 237.717 228 238V244C228 244.283 228.096 244.521 228.287 244.713C228.479 244.904 228.717 245 229 245Z" fill="currentColor"/>
  </g>
</svg>
