<svg xmlns="http://www.w3.org/2000/svg" viewBox="0 0 24 24" width="24" height="24" fill="currentColor">
  <g transform="translate(-399 -57)">
    <path d="M415 68V66H417V68H415ZM415 64V59H417V64H415ZM418.95 78C416.867 78 414.808 77.5458 412.775 76.6375C410.742 75.7292 408.892 74.4417 407.225 72.775C405.558 71.1083 404.271 69.2583 403.363 67.225C402.454 65.1917 402 63.1333 402 61.05C402 60.75 402.1 60.5 402.3 60.3C402.5 60.1 402.75 60 403.05 60H407.1C407.333 60 407.542 60.0792 407.725 60.2375C407.908 60.3958 408.017 60.5833 408.05 60.8L408.7 64.3C408.733 64.5667 408.725 64.7917 408.675 64.975C408.625 65.1583 408.533 65.3167 408.4 65.45L405.975 67.9C406.308 68.5167 406.704 69.1125 407.162 69.6875C407.621 70.2625 408.125 70.8167 408.675 71.35C409.192 71.8667 409.733 72.3458 410.3 72.7875C410.867 73.2292 411.467 73.6333 412.1 74L414.45 71.65C414.6 71.5 414.796 71.3875 415.038 71.3125C415.279 71.2375 415.517 71.2167 415.75 71.25L419.2 71.95C419.433 72.0167 419.625 72.1375 419.775 72.3125C419.925 72.4875 420 72.6833 420 72.9V76.95C420 77.25 419.9 77.5 419.7 77.7C419.5 77.9 419.25 78 418.95 78ZM405.025 66L406.675 64.35L406.25 62H404.025C404.108 62.6833 404.225 63.3583 404.375 64.025C404.525 64.6917 404.742 65.35 405.025 66ZM413.975 74.95C414.625 75.2333 415.288 75.4583 415.963 75.625C416.638 75.7917 417.317 75.9 418 75.95V73.75L415.65 73.275L413.975 74.95Z" fill="currentColor"/>
  </g>
</svg>
