<svg xmlns="http://www.w3.org/2000/svg" viewBox="0 0 24 24" width="24" height="24" fill="currentColor">
  <g transform="translate(-570 -426)">
    <path d="M584 444C585.667 444 587.083 443.417 588.25 442.25C589.417 441.083 590 439.667 590 438C590 436.317 589.388 434.896 588.163 433.737C586.938 432.579 585.467 432 583.75 432C582.95 432 582.175 432.092 581.425 432.275C580.675 432.458 579.95 432.733 579.25 433.1L581.75 434.1C582.433 434.383 582.979 434.821 583.387 435.412C583.796 436.004 584 436.667 584 437.4C584 438.4 583.654 439.25 582.963 439.95C582.271 440.65 581.433 441 580.45 441H574.05C574.017 441.4 574 441.854 574 442.363V444H584ZM574.4 439H580.4C580.85 439 581.229 438.846 581.538 438.538C581.846 438.229 582 437.85 582 437.4C582 437.083 581.913 436.796 581.738 436.537C581.562 436.279 581.317 436.083 581 435.95L577.3 434.45C576.6 435.067 576.004 435.767 575.513 436.55C575.021 437.333 574.65 438.15 574.4 439ZM584 446H574C573.45 446 572.979 445.804 572.588 445.413C572.196 445.021 572 444.55 572 444V441.75C572 440.117 572.308 438.587 572.925 437.162C573.542 435.737 574.379 434.496 575.438 433.438C576.496 432.379 577.742 431.542 579.175 430.925C580.608 430.308 582.133 430 583.75 430C584.883 430 585.95 430.208 586.95 430.625C587.95 431.042 588.825 431.613 589.575 432.338C590.325 433.062 590.917 433.908 591.35 434.875C591.783 435.842 592 436.883 592 438C592 439.1 591.792 440.137 591.375 441.113C590.958 442.088 590.388 442.938 589.663 443.663C588.938 444.388 588.087 444.958 587.113 445.375C586.137 445.792 585.1 446 584 446Z" fill="currentColor"/>
  </g>
</svg>
