<svg xmlns="http://www.w3.org/2000/svg" viewBox="0 0 24 24" width="24" height="24" fill="currentColor">
  <g transform="translate(-27 -60)">
    <path d="M39 64V62H49V64H39ZM39 68V66H49V68H39ZM39 72V70H49V72H39ZM45.95 82C43.8667 82 41.8083 81.5458 39.775 80.6375C37.7417 79.7292 35.8917 78.4417 34.225 76.775C32.5583 75.1083 31.2708 73.2583 30.3625 71.225C29.4542 69.1917 29 67.1333 29 65.05C29 64.75 29.1 64.5 29.3 64.3C29.5 64.1 29.75 64 30.05 64H34.1C34.3333 64 34.5417 64.0792 34.725 64.2375C34.9083 64.3958 35.0167 64.5833 35.05 64.8L35.7 68.3C35.7333 68.5667 35.725 68.7917 35.675 68.975C35.625 69.1583 35.5333 69.3167 35.4 69.45L32.975 71.9C33.3083 72.5167 33.7042 73.1125 34.1625 73.6875C34.6208 74.2625 35.125 74.8167 35.675 75.35C36.1917 75.8667 36.7333 76.3458 37.3 76.7875C37.8667 77.2292 38.4667 77.6333 39.1 78L41.45 75.65C41.6 75.5 41.7958 75.3875 42.0375 75.3125C42.2792 75.2375 42.5167 75.2167 42.75 75.25L46.2 75.95C46.4333 76.0167 46.625 76.1375 46.775 76.3125C46.925 76.4875 47 76.6833 47 76.9V80.95C47 81.25 46.9 81.5 46.7 81.7C46.5 81.9 46.25 82 45.95 82ZM32.025 70L33.675 68.35L33.25 66H31.025C31.1083 66.6833 31.225 67.3583 31.375 68.025C31.525 68.6917 31.7417 69.35 32.025 70ZM40.975 78.95C41.625 79.2333 42.2875 79.4583 42.9625 79.625C43.6375 79.7917 44.3167 79.9 45 79.95V77.75L42.65 77.275L40.975 78.95Z" fill="currentColor"/>
  </g>
</svg>
