<svg xmlns="http://www.w3.org/2000/svg" viewBox="0 0 24 24" width="24" height="24" fill="currentColor">
  <g transform="translate(-454 -57)">
    <path d="M472 67L470.55 65.6L472.15 64H467V62H472.15L470.6 60.45L472 59L476 63.05L472 67ZM473.95 78C471.867 78 469.808 77.5458 467.775 76.6375C465.742 75.7292 463.892 74.4417 462.225 72.775C460.558 71.1083 459.271 69.2583 458.363 67.225C457.454 65.1917 457 63.1333 457 61.05C457 60.75 457.1 60.5 457.3 60.3C457.5 60.1 457.75 60 458.05 60H462.1C462.333 60 462.542 60.0792 462.725 60.2375C462.908 60.3958 463.017 60.5833 463.05 60.8L463.7 64.3C463.733 64.5667 463.725 64.7917 463.675 64.975C463.625 65.1583 463.533 65.3167 463.4 65.45L460.975 67.9C461.308 68.5167 461.704 69.1125 462.162 69.6875C462.621 70.2625 463.125 70.8167 463.675 71.35C464.192 71.8667 464.733 72.3458 465.3 72.7875C465.867 73.2292 466.467 73.6333 467.1 74L469.45 71.65C469.6 71.5 469.796 71.3875 470.038 71.3125C470.279 71.2375 470.517 71.2167 470.75 71.25L474.2 71.95C474.433 72.0167 474.625 72.1375 474.775 72.3125C474.925 72.4875 475 72.6833 475 72.9V76.95C475 77.25 474.9 77.5 474.7 77.7C474.5 77.9 474.25 78 473.95 78ZM460.025 66L461.675 64.35L461.25 62H459.025C459.108 62.6833 459.225 63.3583 459.375 64.025C459.525 64.6917 459.742 65.35 460.025 66ZM468.975 74.95C469.625 75.2333 470.288 75.4583 470.963 75.625C471.638 75.7917 472.317 75.9 473 75.95V73.75L470.65 73.275L468.975 74.95Z" fill="currentColor"/>
  </g>
</svg>
