<svg xmlns="http://www.w3.org/2000/svg" viewBox="0 0 24 24" width="24" height="24" fill="currentColor">
  <g transform="translate(-286 -1081)">
    <path d="M298 1097C298.283 1097 298.529 1096.9 298.738 1096.69C298.946 1096.48 299.05 1096.23 299.05 1095.95C299.05 1095.67 298.946 1095.42 298.738 1095.21C298.529 1095 298.283 1094.9 298 1094.9C297.717 1094.9 297.471 1095 297.263 1095.21C297.054 1095.42 296.95 1095.67 296.95 1095.95C296.95 1096.23 297.054 1096.48 297.263 1096.69C297.471 1096.9 297.717 1097 298 1097ZM297.25 1093.9H298.75C298.75 1093.58 298.763 1093.33 298.788 1093.15C298.812 1092.97 298.85 1092.82 298.9 1092.7C298.967 1092.57 299.062 1092.43 299.188 1092.29C299.312 1092.15 299.517 1091.93 299.8 1091.65C300.15 1091.3 300.413 1090.95 300.588 1090.6C300.763 1090.25 300.85 1089.9 300.85 1089.55C300.85 1088.77 300.592 1088.15 300.075 1087.69C299.558 1087.23 298.867 1087 298 1087C297.317 1087 296.717 1087.19 296.2 1087.58C295.683 1087.96 295.333 1088.47 295.15 1089.1L296.5 1089.65C296.617 1089.27 296.808 1088.97 297.075 1088.76C297.342 1088.55 297.65 1088.45 298 1088.45C298.4 1088.45 298.725 1088.56 298.975 1088.78C299.225 1088.99 299.35 1089.27 299.35 1089.6C299.35 1089.88 299.288 1090.13 299.163 1090.34C299.038 1090.55 298.817 1090.78 298.5 1091.05C298.217 1091.28 297.992 1091.5 297.825 1091.69C297.658 1091.88 297.533 1092.07 297.45 1092.25C297.367 1092.42 297.312 1092.62 297.287 1092.86C297.262 1093.1 297.25 1093.45 297.25 1093.9ZM298 1100.35C300.033 1098.48 301.542 1096.79 302.525 1095.26C303.508 1093.74 304 1092.38 304 1091.2C304 1089.38 303.421 1087.9 302.262 1086.74C301.104 1085.58 299.683 1085 298 1085C296.317 1085 294.896 1085.58 293.737 1086.74C292.579 1087.9 292 1089.38 292 1091.2C292 1092.38 292.492 1093.74 293.475 1095.26C294.458 1096.79 295.967 1098.48 298 1100.35ZM298 1103C295.317 1100.72 293.312 1098.6 291.988 1096.64C290.663 1094.68 290 1092.87 290 1091.2C290 1088.7 290.804 1086.71 292.413 1085.23C294.021 1083.74 295.883 1083 298 1083C300.117 1083 301.979 1083.74 303.588 1085.23C305.196 1086.71 306 1088.7 306 1091.2C306 1092.87 305.337 1094.68 304.012 1096.64C302.688 1098.6 300.683 1100.72 298 1103Z" fill="currentColor"/>
  </g>
</svg>
