<svg xmlns="http://www.w3.org/2000/svg" viewBox="0 0 24 24" width="24" height="24" fill="currentColor">
  <g transform="translate(-564 -52)">
    <path d="M567.4 72.4L565.1 70.15C564.9 69.95 564.8 69.7167 564.8 69.45C564.8 69.1833 564.9 68.95 565.1 68.75C566.567 67.1667 568.258 65.9792 570.175 65.1875C572.092 64.3958 574.033 64 576 64C577.967 64 579.904 64.3958 581.813 65.1875C583.721 65.9792 585.417 67.1667 586.9 68.75C587.1 68.95 587.2 69.1833 587.2 69.45C587.2 69.7167 587.1 69.95 586.9 70.15L584.6 72.4C584.417 72.5833 584.204 72.6833 583.963 72.7C583.721 72.7167 583.5 72.65 583.3 72.5L580.4 70.3C580.267 70.2 580.167 70.0833 580.1 69.95C580.033 69.8167 580 69.6667 580 69.5V66.65C579.367 66.45 578.717 66.2917 578.05 66.175C577.383 66.0583 576.7 66 576 66C575.3 66 574.617 66.0583 573.95 66.175C573.283 66.2917 572.633 66.45 572 66.65V69.5C572 69.6667 571.967 69.8167 571.9 69.95C571.833 70.0833 571.733 70.2 571.6 70.3L568.7 72.5C568.5 72.65 568.279 72.7167 568.038 72.7C567.796 72.6833 567.583 72.5833 567.4 72.4ZM570 67.35C569.517 67.6 569.05 67.8875 568.6 68.2125C568.15 68.5375 567.683 68.9 567.2 69.3L568.2 70.3L570 68.9V67.35ZM582 67.4V68.9L583.8 70.3L584.8 69.35C584.317 68.9167 583.85 68.5417 583.4 68.225C582.95 67.9083 582.483 67.6333 582 67.4ZM575 59V54H577V59H575ZM581.6 61.85L580.2 60.4L583.75 56.85L585.15 58.3L581.6 61.85ZM570.4 61.85L566.85 58.3L568.25 56.85L571.8 60.4L570.4 61.85Z" fill="currentColor"/>
  </g>
</svg>
