<svg xmlns="http://www.w3.org/2000/svg" viewBox="0 0 24 24" width="24" height="24" fill="currentColor">
  <g transform="translate(-90 -60)">
    <path d="M109.8 82.6999L104.25 77.1499C102.767 78.3499 101.154 79.2916 99.4125 79.9749C97.6709 80.6582 95.8834 80.9999 94.05 80.9999C93.65 80.9999 93.375 80.8999 93.225 80.6999C93.075 80.4999 93 80.2499 93 79.9499V75.8999C93 75.6666 93.075 75.4624 93.225 75.2874C93.375 75.1124 93.5667 74.9999 93.8 74.9499L97.25 74.2499C97.4334 74.2166 97.6625 74.2416 97.9375 74.3249C98.2125 74.4082 98.4167 74.5166 98.55 74.6499L100.9 76.9999C101.2 76.8166 101.525 76.6082 101.875 76.3749C102.225 76.1416 102.533 75.9166 102.8 75.6999L91.4 64.2999L92.8 62.8999L111.2 81.2999L109.8 82.6999ZM99 77.8999L97.35 76.2499L95 76.7499V78.9499C95.6834 78.8999 96.3584 78.7832 97.025 78.5999C97.6917 78.4166 98.35 78.1832 99 77.8999ZM107.05 74.2999L105.65 72.8999C105.9 72.6166 106.154 72.2916 106.413 71.9249C106.671 71.5582 106.875 71.2166 107.025 70.8999L104.6 68.4499C104.467 68.3166 104.375 68.1291 104.325 67.8874C104.275 67.6457 104.267 67.4499 104.3 67.2999L104.95 63.7999C105 63.5666 105.113 63.3749 105.288 63.2249C105.463 63.0749 105.667 62.9999 105.9 62.9999H109.95C110.25 62.9999 110.5 63.0999 110.7 63.2999C110.9 63.4999 111 63.7499 111 64.0499C111 65.8832 110.65 67.6707 109.95 69.4124C109.25 71.1541 108.283 72.7832 107.05 74.2999ZM107.95 68.9999C108.233 68.3499 108.45 67.6916 108.6 67.0249C108.75 66.3582 108.867 65.6832 108.95 64.9999H106.75L106.3 67.3499L107.95 68.9999Z" fill="currentColor"/>
  </g>
</svg>
