<svg xmlns="http://www.w3.org/2000/svg" viewBox="0 0 24 24" width="24" height="24" fill="currentColor">
  <g transform="translate(-105 -354)">
    <path d="M117 375C115.9 375 114.958 374.608 114.175 373.825C113.392 373.042 113 372.1 113 371C113 369.9 113.392 368.958 114.175 368.175C114.958 367.392 115.9 367 117 367C117.383 367 117.738 367.046 118.062 367.137C118.387 367.229 118.7 367.367 119 367.55V357H125V361H121V371C121 372.1 120.608 373.042 119.825 373.825C119.042 374.608 118.1 375 117 375ZM112 365V362H109V360H112V357H114V360H117V362H114V365H112Z" fill="currentColor"/>
  </g>
</svg>
