<svg xmlns="http://www.w3.org/2000/svg" viewBox="0 0 24 24" width="24" height="24" fill="currentColor">
  <g transform="translate(-623 -52)">
    <path d="M635 75C634.45 75 633.979 74.8042 633.588 74.4125C633.196 74.0208 633 73.55 633 73C633 72.45 633.196 71.9792 633.588 71.5875C633.979 71.1958 634.45 71 635 71C635.55 71 636.021 71.1958 636.413 71.5875C636.804 71.9792 637 72.45 637 73C637 73.55 636.804 74.0208 636.413 74.4125C636.021 74.8042 635.55 75 635 75ZM629 57C628.45 57 627.979 56.8042 627.588 56.4125C627.196 56.0208 627 55.55 627 55C627 54.45 627.196 53.9792 627.588 53.5875C627.979 53.1958 628.45 53 629 53C629.55 53 630.021 53.1958 630.413 53.5875C630.804 53.9792 631 54.45 631 55C631 55.55 630.804 56.0208 630.413 56.4125C630.021 56.8042 629.55 57 629 57ZM629 63C628.45 63 627.979 62.8042 627.588 62.4125C627.196 62.0208 627 61.55 627 61C627 60.45 627.196 59.9792 627.588 59.5875C627.979 59.1958 628.45 59 629 59C629.55 59 630.021 59.1958 630.413 59.5875C630.804 59.9792 631 60.45 631 61C631 61.55 630.804 62.0208 630.413 62.4125C630.021 62.8042 629.55 63 629 63ZM629 69C628.45 69 627.979 68.8042 627.588 68.4125C627.196 68.0208 627 67.55 627 67C627 66.45 627.196 65.9792 627.588 65.5875C627.979 65.1958 628.45 65 629 65C629.55 65 630.021 65.1958 630.413 65.5875C630.804 65.9792 631 66.45 631 67C631 67.55 630.804 68.0208 630.413 68.4125C630.021 68.8042 629.55 69 629 69ZM641 57C640.45 57 639.979 56.8042 639.588 56.4125C639.196 56.0208 639 55.55 639 55C639 54.45 639.196 53.9792 639.588 53.5875C639.979 53.1958 640.45 53 641 53C641.55 53 642.021 53.1958 642.413 53.5875C642.804 53.9792 643 54.45 643 55C643 55.55 642.804 56.0208 642.413 56.4125C642.021 56.8042 641.55 57 641 57ZM635 69C634.45 69 633.979 68.8042 633.588 68.4125C633.196 68.0208 633 67.55 633 67C633 66.45 633.196 65.9792 633.588 65.5875C633.979 65.1958 634.45 65 635 65C635.55 65 636.021 65.1958 636.413 65.5875C636.804 65.9792 637 66.45 637 67C637 67.55 636.804 68.0208 636.413 68.4125C636.021 68.8042 635.55 69 635 69ZM641 69C640.45 69 639.979 68.8042 639.588 68.4125C639.196 68.0208 639 67.55 639 67C639 66.45 639.196 65.9792 639.588 65.5875C639.979 65.1958 640.45 65 641 65C641.55 65 642.021 65.1958 642.413 65.5875C642.804 65.9792 643 66.45 643 67C643 67.55 642.804 68.0208 642.413 68.4125C642.021 68.8042 641.55 69 641 69ZM641 63C640.45 63 639.979 62.8042 639.588 62.4125C639.196 62.0208 639 61.55 639 61C639 60.45 639.196 59.9792 639.588 59.5875C639.979 59.1958 640.45 59 641 59C641.55 59 642.021 59.1958 642.413 59.5875C642.804 59.9792 643 60.45 643 61C643 61.55 642.804 62.0208 642.413 62.4125C642.021 62.8042 641.55 63 641 63ZM635 63C634.45 63 633.979 62.8042 633.588 62.4125C633.196 62.0208 633 61.55 633 61C633 60.45 633.196 59.9792 633.588 59.5875C633.979 59.1958 634.45 59 635 59C635.55 59 636.021 59.1958 636.413 59.5875C636.804 59.9792 637 60.45 637 61C637 61.55 636.804 62.0208 636.413 62.4125C636.021 62.8042 635.55 63 635 63ZM635 57C634.45 57 633.979 56.8042 633.588 56.4125C633.196 56.0208 633 55.55 633 55C633 54.45 633.196 53.9792 633.588 53.5875C633.979 53.1958 634.45 53 635 53C635.55 53 636.021 53.1958 636.413 53.5875C636.804 53.9792 637 54.45 637 55C637 55.55 636.804 56.0208 636.413 56.4125C636.021 56.8042 635.55 57 635 57Z" fill="currentColor"/>
  </g>
</svg>
