<svg xmlns="http://www.w3.org/2000/svg" viewBox="0 0 24 24" width="24" height="24" fill="currentColor">
  <g transform="translate(-117 -430)">
    <path d="M129 452C126.683 451.417 124.771 450.088 123.263 448.013C121.754 445.938 121 443.633 121 441.1V435L129 432L137 435V441.1C137 443.633 136.246 445.938 134.738 448.013C133.229 450.088 131.317 451.417 129 452ZM129 449.9C130.733 449.35 132.167 448.25 133.3 446.6C134.433 444.95 135 443.117 135 441.1V436.375L129 434.125L123 436.375V441.1C123 443.117 123.567 444.95 124.7 446.6C125.833 448.25 127.267 449.35 129 449.9Z" fill="currentColor"/>
  </g>
</svg>
