<svg xmlns="http://www.w3.org/2000/svg" viewBox="0 0 24 24" width="24" height="24" fill="currentColor">
  <g transform="translate(-553 -353)">
    <path d="M570.5 376C570.067 376 569.708 375.858 569.425 375.575C569.142 375.292 569 374.933 569 374.5V371H567.5V369H571V374H572V369H574V367H567.5V365H574.5C574.917 365 575.271 365.146 575.562 365.438C575.854 365.729 576 366.083 576 366.5V369.5C576 369.933 575.854 370.292 575.562 370.575C575.271 370.858 574.917 371 574.5 371H574V374.5C574 374.933 573.854 375.292 573.562 375.575C573.271 375.858 572.917 376 572.5 376H570.5ZM565.5 372C564.367 372 563.4 371.617 562.6 370.85C561.8 370.083 561.4 369.133 561.4 368C561.4 366.883 561.8 365.938 562.6 365.163C563.4 364.388 564.367 364 565.5 364H567.5V372H565.5ZM565.5 370.125V365.9C564.917 365.9 564.417 366.104 564 366.512C563.583 366.921 563.375 367.417 563.375 368C563.375 368.583 563.583 369.083 564 369.5C564.417 369.917 564.917 370.125 565.5 370.125ZM557.5 366C557.067 366 556.708 365.858 556.425 365.575C556.142 365.292 556 364.933 556 364.5V361H555.5C555.067 361 554.708 360.858 554.425 360.575C554.142 360.292 554 359.933 554 359.5V356.5C554 356.083 554.142 355.729 554.425 355.438C554.708 355.146 555.067 355 555.5 355H562.5V357H556V359H558V364H559V359H562.5V361H561V364.5C561 364.933 560.854 365.292 560.562 365.575C560.271 365.858 559.917 366 559.5 366H557.5ZM562.5 362V354H564.5C565.617 354 566.579 354.387 567.387 355.163C568.196 355.938 568.6 356.883 568.6 358C568.6 359.133 568.196 360.083 567.387 360.85C566.579 361.617 565.617 362 564.5 362H562.5ZM564.5 360.125C565.083 360.125 565.579 359.917 565.988 359.5C566.396 359.083 566.6 358.583 566.6 358C566.6 357.417 566.396 356.921 565.988 356.513C565.579 356.104 565.083 355.9 564.5 355.9V360.125Z" fill="currentColor"/>
  </g>
</svg>
