<svg xmlns="http://www.w3.org/2000/svg" viewBox="0 0 24 24" width="24" height="24" fill="currentColor">
  <g transform="translate(-496 -354)">
    <path d="M508 361C506.9 361 505.958 361.392 505.175 362.175C504.392 362.958 504 363.9 504 365C504 366.1 504.392 367.042 505.175 367.825C505.958 368.608 506.9 369 508 369C509.1 369 510.042 368.608 510.825 367.825C511.608 367.042 512 366.1 512 365C512 363.9 511.608 362.958 510.825 362.175C510.042 361.392 509.1 361 508 361ZM508 367C507.45 367 506.979 366.804 506.588 366.413C506.196 366.021 506 365.55 506 365C506 364.45 506.196 363.979 506.588 363.588C506.979 363.196 507.45 363 508 363C508.55 363 509.021 363.196 509.413 363.588C509.804 363.979 510 364.45 510 365C510 365.55 509.804 366.021 509.413 366.413C509.021 366.804 508.55 367 508 367ZM512 371C512.283 371 512.521 370.904 512.713 370.713C512.904 370.521 513 370.283 513 370C513 369.717 512.904 369.479 512.713 369.288C512.521 369.096 512.283 369 512 369C511.717 369 511.479 369.096 511.288 369.288C511.096 369.479 511 369.717 511 370C511 370.283 511.096 370.521 511.288 370.713C511.479 370.904 511.717 371 512 371ZM500 376V361C500 359.617 500.487 358.438 501.462 357.462C502.438 356.487 503.617 356 505 356H511C512.383 356 513.562 356.487 514.538 357.462C515.513 358.438 516 359.617 516 361V376H500ZM502 372H514V361C514 360.167 513.708 359.458 513.125 358.875C512.542 358.292 511.833 358 511 358H505C504.167 358 503.458 358.292 502.875 358.875C502.292 359.458 502 360.167 502 361V372Z" fill="currentColor"/>
  </g>
</svg>
