<svg xmlns="http://www.w3.org/2000/svg" viewBox="0 0 24 24" width="24" height="24" fill="currentColor">
  <g transform="translate(-27 -148)">
    <path d="M39 165C39.2833 165 39.5208 164.904 39.7125 164.713C39.9041 164.521 40 164.284 40 164C40 163.717 39.9041 163.479 39.7125 163.288C39.5208 163.096 39.2833 163 39 163C38.7166 163 38.4791 163.096 38.2875 163.288C38.0958 163.479 38 163.717 38 164C38 164.284 38.0958 164.521 38.2875 164.713C38.4791 164.904 38.7166 165 39 165ZM38 161H40V155H38V161ZM39 171.3L35.65 168H31V163.35L27.7 160L31 156.65V152H35.65L39 148.7L42.35 152H47V156.65L50.3 160L47 163.35V168H42.35L39 171.3ZM39 168.5L41.5 166H45V162.5L47.5 160L45 157.5V154H41.5L39 151.5L36.5 154H33V157.5L30.5 160L33 162.5V166H36.5L39 168.5Z" fill="currentColor"/>
  </g>
</svg>
