<svg xmlns="http://www.w3.org/2000/svg" viewBox="0 0 24 24" width="24" height="24" fill="currentColor">
  <g transform="translate(-390 -354)">
    <path d="M404 376C403.45 376 402.979 375.804 402.588 375.413C402.196 375.021 402 374.55 402 374V366H400V364H404V374H406V364H409V360H400V358H409C409.55 358 410.021 358.196 410.413 358.588C410.804 358.979 411 359.45 411 360V364C411 364.55 410.804 365.021 410.413 365.413C410.021 365.804 409.55 366 409 366H408V374C408 374.55 407.804 375.021 407.413 375.413C407.021 375.804 406.55 376 406 376H404ZM399 368C397.333 368 395.917 367.417 394.75 366.25C393.583 365.083 393 363.667 393 362C393 360.333 393.583 358.917 394.75 357.75C395.917 356.583 397.333 356 399 356H400V368H399ZM398 365.875V358.125C397.1 358.358 396.375 358.833 395.825 359.55C395.275 360.267 395 361.083 395 362C395 362.917 395.275 363.733 395.825 364.45C396.375 365.167 397.1 365.642 398 365.875Z" fill="currentColor"/>
  </g>
</svg>
