<svg xmlns="http://www.w3.org/2000/svg" viewBox="0 0 24 24" width="24" height="24" fill="currentColor">
  <g transform="translate(-153 -148)">
    <path d="M159 170C158.45 170 157.979 169.804 157.588 169.413C157.196 169.021 157 168.55 157 168V158C157 157.45 157.196 156.979 157.588 156.588C157.979 156.196 158.45 156 159 156H160V154C160 152.617 160.488 151.438 161.463 150.462C162.438 149.487 163.617 149 165 149C166.383 149 167.562 149.487 168.538 150.462C169.513 151.438 170 152.617 170 154V156H171C171.55 156 172.021 156.196 172.413 156.588C172.804 156.979 173 157.45 173 158V168C173 168.55 172.804 169.021 172.413 169.413C172.021 169.804 171.55 170 171 170H159ZM159 168H171V158H159V168ZM165 165C165.55 165 166.021 164.804 166.413 164.413C166.804 164.021 167 163.55 167 163C167 162.45 166.804 161.979 166.413 161.588C166.021 161.196 165.55 161 165 161C164.45 161 163.979 161.196 163.588 161.588C163.196 161.979 163 162.45 163 163C163 163.55 163.196 164.021 163.588 164.413C163.979 164.804 164.45 165 165 165ZM162 156H168V154C168 153.167 167.708 152.458 167.125 151.875C166.542 151.292 165.833 151 165 151C164.167 151 163.458 151.292 162.875 151.875C162.292 152.458 162 153.167 162 154V156Z" fill="currentColor"/>
  </g>
</svg>
