<svg xmlns="http://www.w3.org/2000/svg" viewBox="0 0 24 24" width="24" height="24" fill="currentColor">
  <g transform="translate(-390 -426)">
    <path d="M408 444C408.417 444 408.771 443.854 409.062 443.562C409.354 443.271 409.5 442.917 409.5 442.5C409.5 442.083 409.354 441.729 409.062 441.438C408.771 441.146 408.417 441 408 441C407.583 441 407.229 441.146 406.938 441.438C406.646 441.729 406.5 442.083 406.5 442.5C406.5 442.917 406.646 443.271 406.938 443.562C407.229 443.854 407.583 444 408 444ZM408 447C408.5 447 408.967 446.883 409.4 446.65C409.833 446.417 410.192 446.092 410.475 445.675C410.092 445.442 409.692 445.271 409.275 445.163C408.858 445.054 408.433 445 408 445C407.567 445 407.142 445.054 406.725 445.163C406.308 445.271 405.908 445.442 405.525 445.675C405.808 446.092 406.167 446.417 406.6 446.65C407.033 446.883 407.5 447 408 447ZM399 434H405V432C405 431.167 404.708 430.458 404.125 429.875C403.542 429.292 402.833 429 402 429C401.167 429 400.458 429.292 399.875 429.875C399.292 430.458 399 431.167 399 432V434ZM402.25 448H396C395.45 448 394.979 447.804 394.588 447.413C394.196 447.021 394 446.55 394 446V436C394 435.45 394.196 434.979 394.588 434.588C394.979 434.196 395.45 434 396 434H397V432C397 430.617 397.488 429.438 398.463 428.462C399.438 427.487 400.617 427 402 427C403.383 427 404.562 427.487 405.538 428.462C406.513 429.438 407 430.617 407 432V434H408C408.55 434 409.021 434.196 409.413 434.588C409.804 434.979 410 435.45 410 436V437.3C409.7 437.2 409.387 437.125 409.062 437.075C408.738 437.025 408.383 437 408 437V436H396V446H401.3C401.433 446.4 401.567 446.746 401.7 447.038C401.833 447.329 402.017 447.65 402.25 448ZM408 449C406.617 449 405.438 448.513 404.463 447.538C403.488 446.562 403 445.383 403 444C403 442.617 403.488 441.438 404.463 440.463C405.438 439.488 406.617 439 408 439C409.383 439 410.562 439.488 411.538 440.463C412.513 441.438 413 442.617 413 444C413 445.383 412.513 446.562 411.538 447.538C410.562 448.513 409.383 449 408 449Z" fill="currentColor"/>
  </g>
</svg>
