<svg xmlns="http://www.w3.org/2000/svg" viewBox="0 0 24 24" width="24" height="24" fill="currentColor">
  <g transform="translate(-509 -57)">
    <path d="M524 67V60H526V67H524ZM528 67V60H530V67H528ZM528.95 78C526.8 78 524.704 77.5208 522.663 76.5625C520.621 75.6042 518.812 74.3375 517.238 72.7625C515.663 71.1875 514.396 69.3792 513.438 67.3375C512.479 65.2958 512 63.2 512 61.05C512 60.75 512.1 60.5 512.3 60.3C512.5 60.1 512.75 60 513.05 60H517.1C517.333 60 517.542 60.075 517.725 60.225C517.908 60.375 518.017 60.5667 518.05 60.8L518.7 64.3C518.733 64.5333 518.729 64.7458 518.688 64.9375C518.646 65.1292 518.55 65.3 518.4 65.45L515.975 67.9C516.675 69.1 517.554 70.225 518.613 71.275C519.671 72.325 520.833 73.2333 522.1 74L524.45 71.65C524.6 71.5 524.796 71.3875 525.038 71.3125C525.279 71.2375 525.517 71.2167 525.75 71.25L529.2 71.95C529.433 72 529.625 72.1125 529.775 72.2875C529.925 72.4625 530 72.6667 530 72.9V76.95C530 77.25 529.9 77.5 529.7 77.7C529.5 77.9 529.25 78 528.95 78ZM515.025 66L516.675 64.35L516.25 62H514.025C514.108 62.6833 514.225 63.3583 514.375 64.025C514.525 64.6917 514.742 65.35 515.025 66ZM523.975 74.95C524.625 75.2333 525.288 75.4583 525.963 75.625C526.638 75.7917 527.317 75.9 528 75.95V73.75L525.65 73.275L523.975 74.95Z" fill="currentColor"/>
  </g>
</svg>
