<svg xmlns="http://www.w3.org/2000/svg" viewBox="0 0 24 24" width="24" height="24" fill="currentColor">
  <g transform="translate(-294 -1029)">
    <path d="M306 1041V1031C306 1030.72 306.096 1030.48 306.288 1030.29C306.479 1030.1 306.717 1030 307 1030C307.283 1030 307.521 1030.1 307.713 1030.29C307.904 1030.48 308 1030.72 308 1031V1041H306ZM302 1041V1032C302 1031.72 302.096 1031.48 302.287 1031.29C302.479 1031.1 302.717 1031 303 1031C303.283 1031 303.521 1031.1 303.713 1031.29C303.904 1031.48 304 1031.72 304 1032V1041H302ZM306.5 1052C304.133 1052 302.125 1051.17 300.475 1049.52C298.825 1047.88 298 1045.87 298 1043.5V1034C298 1033.72 298.096 1033.48 298.287 1033.29C298.479 1033.1 298.717 1033 299 1033C299.283 1033 299.521 1033.1 299.712 1033.29C299.904 1033.48 300 1033.72 300 1034V1043.5C300 1045.32 300.629 1046.85 301.888 1048.11C303.146 1049.37 304.683 1050 306.5 1050C308.317 1050 309.854 1049.37 311.113 1048.11C312.371 1046.85 313 1045.32 313 1043.5V1040C312.717 1040 312.479 1040.1 312.288 1040.29C312.096 1040.48 312 1040.72 312 1041V1045H309C308.45 1045 307.979 1045.2 307.588 1045.59C307.196 1045.98 307 1046.45 307 1047V1048H305V1047C305 1045.9 305.392 1044.96 306.175 1044.18C306.958 1043.39 307.9 1043 309 1043H310V1033C310 1032.72 310.096 1032.48 310.288 1032.29C310.479 1032.1 310.717 1032 311 1032C311.283 1032 311.521 1032.1 311.713 1032.29C311.904 1032.48 312 1032.72 312 1033V1038.18C312.167 1038.12 312.329 1038.08 312.488 1038.05C312.646 1038.02 312.817 1038 313 1038H315V1043.5C315 1045.87 314.175 1047.88 312.525 1049.52C310.875 1051.17 308.867 1052 306.5 1052Z" fill="currentColor"/>
  </g>
</svg>
