<svg xmlns="http://www.w3.org/2000/svg" viewBox="0 0 24 24" width="24" height="24" fill="currentColor">
  <g transform="translate(-563 -981)">
    <path d="M570 995C569.45 995 568.979 994.804 568.588 994.412C568.196 994.021 568 993.55 568 993C568 992.45 568.196 991.979 568.588 991.588C568.979 991.196 569.45 991 570 991C570.55 991 571.021 991.196 571.412 991.588C571.804 991.979 572 992.45 572 993C572 993.55 571.804 994.021 571.412 994.412C571.021 994.804 570.55 995 570 995ZM570 999C568.333 999 566.917 998.417 565.75 997.25C564.583 996.083 564 994.667 564 993C564 991.333 564.583 989.917 565.75 988.75C566.917 987.583 568.333 987 570 987C571.117 987 572.129 987.275 573.038 987.825C573.946 988.375 574.667 989.1 575.2 990H584L587 993L582.5 997.5L580.5 996L578.5 997.5L576.375 996H575.2C574.667 996.9 573.946 997.625 573.038 998.175C572.129 998.725 571.117 999 570 999ZM570 997C570.933 997 571.754 996.717 572.463 996.15C573.171 995.583 573.642 994.867 573.875 994H577L578.45 995.025L580.5 993.5L582.275 994.875L584.15 993L583.15 992H573.875C573.642 991.133 573.171 990.417 572.463 989.85C571.754 989.283 570.933 989 570 989C568.9 989 567.958 989.392 567.175 990.175C566.392 990.958 566 991.9 566 993C566 994.1 566.392 995.042 567.175 995.825C567.958 996.608 568.9 997 570 997Z" fill="currentColor"/>
  </g>
</svg>
