<svg xmlns="http://www.w3.org/2000/svg" viewBox="0 0 24 24" width="24" height="24" fill="currentColor">
  <g transform="translate(-329 -426)">
    <path d="M335 446H347V436H335V446ZM341 443C341.55 443 342.021 442.804 342.413 442.413C342.804 442.021 343 441.55 343 441C343 440.45 342.804 439.979 342.413 439.588C342.021 439.196 341.55 439 341 439C340.45 439 339.979 439.196 339.588 439.588C339.196 439.979 339 440.45 339 441C339 441.55 339.196 442.021 339.588 442.413C339.979 442.804 340.45 443 341 443ZM335 448C334.45 448 333.979 447.804 333.588 447.413C333.196 447.021 333 446.55 333 446V436C333 435.45 333.196 434.979 333.588 434.588C333.979 434.196 334.45 434 335 434H342V432C342 430.617 342.488 429.438 343.463 428.462C344.438 427.487 345.617 427 347 427C348.383 427 349.562 427.487 350.538 428.462C351.513 429.438 352 430.617 352 432H350C350 431.167 349.708 430.458 349.125 429.875C348.542 429.292 347.833 429 347 429C346.167 429 345.458 429.292 344.875 429.875C344.292 430.458 344 431.167 344 432V434H347C347.55 434 348.021 434.196 348.413 434.588C348.804 434.979 349 435.45 349 436V446C349 446.55 348.804 447.021 348.413 447.413C348.021 447.804 347.55 448 347 448H335Z" fill="currentColor"/>
  </g>
</svg>
