<svg xmlns="http://www.w3.org/2000/svg" viewBox="0 0 24 24" width="24" height="24" fill="currentColor">
  <g transform="translate(-345 -1029)">
    <path d="M366 1047.15L364 1045.15V1034C364 1033.72 364.096 1033.48 364.288 1033.29C364.479 1033.1 364.717 1033 365 1033C365.283 1033 365.521 1033.1 365.713 1033.29C365.904 1033.48 366 1033.72 366 1034V1047.15ZM354 1035.15L352 1033.15V1033C352 1032.72 352.096 1032.48 352.288 1032.29C352.479 1032.1 352.717 1032 353 1032C353.283 1032 353.521 1032.1 353.713 1032.29C353.904 1032.48 354 1032.72 354 1033V1035.15ZM358 1039.15L356 1037.15V1031C356 1030.72 356.096 1030.48 356.288 1030.29C356.479 1030.1 356.717 1030 357 1030C357.283 1030 357.521 1030.1 357.713 1030.29C357.904 1030.48 358 1030.72 358 1031V1039.15ZM362 1041.18H360V1032C360 1031.72 360.096 1031.48 360.288 1031.29C360.479 1031.1 360.717 1031 361 1031C361.283 1031 361.521 1031.1 361.713 1031.29C361.904 1031.48 362 1031.72 362 1032V1041.18ZM362.925 1049.75L354 1040.82V1046.43L350.3 1043.82L354.225 1049.55C354.308 1049.68 354.425 1049.79 354.575 1049.88C354.725 1049.96 354.883 1050 355.05 1050H362C362.167 1050 362.329 1049.98 362.488 1049.94C362.646 1049.9 362.792 1049.83 362.925 1049.75ZM355.05 1052C354.55 1052 354.083 1051.89 353.65 1051.66C353.217 1051.44 352.858 1051.12 352.575 1050.7L346.2 1041.38L346.8 1040.8C347.117 1040.48 347.492 1040.3 347.925 1040.25C348.358 1040.2 348.75 1040.3 349.1 1040.55L352 1042.57V1038.82L345.675 1032.5L347.1 1031.08L366.9 1050.88L365.475 1052.3L364.375 1051.2C364.042 1051.45 363.675 1051.65 363.275 1051.79C362.875 1051.93 362.45 1052 362 1052H355.05Z" fill="currentColor"/>
  </g>
</svg>
