<svg xmlns="http://www.w3.org/2000/svg" viewBox="0 0 24 24" width="24" height="24" fill="currentColor">
  <g transform="translate(-223 -430)">
    <path d="M240 447C240.417 447 240.771 446.854 241.062 446.562C241.354 446.271 241.5 445.917 241.5 445.5C241.5 445.083 241.354 444.729 241.062 444.438C240.771 444.146 240.417 444 240 444C239.583 444 239.229 444.146 238.938 444.438C238.646 444.729 238.5 445.083 238.5 445.5C238.5 445.917 238.646 446.271 238.938 446.562C239.229 446.854 239.583 447 240 447ZM240 450C240.517 450 240.992 449.879 241.425 449.638C241.858 449.396 242.208 449.075 242.475 448.675C242.108 448.458 241.717 448.292 241.3 448.175C240.883 448.058 240.45 448 240 448C239.55 448 239.117 448.058 238.7 448.175C238.283 448.292 237.892 448.458 237.525 448.675C237.792 449.075 238.142 449.396 238.575 449.638C239.008 449.879 239.483 450 240 450ZM235 452C232.683 451.417 230.771 450.088 229.263 448.013C227.754 445.938 227 443.633 227 441.1V435L235 432L243 435V440.675C242.683 440.542 242.358 440.421 242.025 440.312C241.692 440.204 241.35 440.125 241 440.075V436.4L235 434.15L229 436.4V441.1C229 441.883 229.104 442.667 229.312 443.45C229.521 444.233 229.812 444.979 230.188 445.688C230.562 446.396 231.017 447.05 231.55 447.65C232.083 448.25 232.675 448.75 233.325 449.15C233.508 449.683 233.75 450.192 234.05 450.675C234.35 451.158 234.692 451.592 235.075 451.975C235.058 451.975 235.046 451.979 235.038 451.988C235.029 451.996 235.017 452 235 452ZM240 452C238.617 452 237.438 451.513 236.463 450.538C235.488 449.562 235 448.383 235 447C235 445.617 235.488 444.438 236.463 443.463C237.438 442.488 238.617 442 240 442C241.383 442 242.562 442.488 243.538 443.463C244.513 444.438 245 445.617 245 447C245 448.383 244.513 449.562 243.538 450.538C242.562 451.513 241.383 452 240 452Z" fill="currentColor"/>
  </g>
</svg>
