<svg xmlns="http://www.w3.org/2000/svg" viewBox="0 0 24 24" width="24" height="24" fill="currentColor">
  <g transform="translate(-510 -984)">
    <path d="M518 998H526V997.45C526 996.717 525.633 996.125 524.9 995.675C524.167 995.225 523.2 995 522 995C520.8 995 519.833 995.225 519.1 995.675C518.367 996.125 518 996.717 518 997.45V998ZM522 994C522.55 994 523.021 993.804 523.413 993.412C523.804 993.021 524 992.55 524 992C524 991.45 523.804 990.979 523.413 990.588C523.021 990.196 522.55 990 522 990C521.45 990 520.979 990.196 520.588 990.588C520.196 990.979 520 991.45 520 992C520 992.55 520.196 993.021 520.588 993.412C520.979 993.804 521.45 994 522 994ZM512 1006V988C512 987.45 512.196 986.979 512.588 986.588C512.979 986.196 513.45 986 514 986H530C530.55 986 531.021 986.196 531.413 986.588C531.804 986.979 532 987.45 532 988V1000C532 1000.55 531.804 1001.02 531.413 1001.41C531.021 1001.8 530.55 1002 530 1002H516L512 1006ZM515.15 1000H530V988H514V1001.12L515.15 1000Z" fill="currentColor"/>
  </g>
</svg>
