<svg xmlns="http://www.w3.org/2000/svg" viewBox="0 0 24 24" width="24" height="24" fill="currentColor">
  <g transform="translate(-235 -522)">
    <path d="M247 544C244.683 543.417 242.771 542.088 241.263 540.013C239.754 537.938 239 535.633 239 533.1V527L247 524L255 527V533.1C255 535.633 254.246 537.938 252.738 540.013C251.229 542.088 249.317 543.417 247 544ZM247 541.9C248.733 541.35 250.167 540.25 251.3 538.6C252.433 536.95 253 535.117 253 533.1V528.375L247 526.125L241 528.375V533.1C241 535.117 241.567 536.95 242.7 538.6C243.833 540.25 245.267 541.35 247 541.9ZM245 538H249C249.283 538 249.521 537.904 249.713 537.713C249.904 537.521 250 537.283 250 537V534C250 533.717 249.904 533.479 249.713 533.288C249.521 533.096 249.283 533 249 533V532C249 531.45 248.804 530.979 248.413 530.588C248.021 530.196 247.55 530 247 530C246.45 530 245.979 530.196 245.588 530.588C245.196 530.979 245 531.45 245 532V533C244.717 533 244.479 533.096 244.287 533.288C244.096 533.479 244 533.717 244 534V537C244 537.283 244.096 537.521 244.287 537.713C244.479 537.904 244.717 538 245 538ZM246 533V532C246 531.717 246.096 531.479 246.287 531.287C246.479 531.096 246.717 531 247 531C247.283 531 247.521 531.096 247.713 531.287C247.904 531.479 248 531.717 248 532V533H246Z" fill="currentColor"/>
  </g>
</svg>
