<svg xmlns="http://www.w3.org/2000/svg" viewBox="0 0 24 24" width="24" height="24" fill="currentColor">
  <g transform="translate(-456 -1074)">
    <path d="M473.1 1088.28L471.875 1087.05C472.242 1086.62 472.521 1086.14 472.712 1085.63C472.904 1085.11 473 1084.57 473 1084C473 1083.33 472.867 1082.7 472.6 1082.1C472.333 1081.5 471.967 1080.97 471.5 1080.5L472.7 1079.3C473.333 1079.93 473.825 1080.65 474.175 1081.45C474.525 1082.25 474.7 1083.1 474.7 1084C474.7 1084.8 474.558 1085.56 474.275 1086.29C473.992 1087.01 473.6 1087.68 473.1 1088.28ZM470.125 1085.3L466.7 1081.88C466.9 1081.76 467.108 1081.67 467.325 1081.6C467.542 1081.53 467.767 1081.5 468 1081.5C468.7 1081.5 469.292 1081.74 469.775 1082.23C470.258 1082.71 470.5 1083.3 470.5 1084C470.5 1084.23 470.467 1084.46 470.4 1084.68C470.333 1084.89 470.242 1085.1 470.125 1085.3ZM475.5 1090.65L474.3 1089.45C474.967 1088.7 475.467 1087.85 475.8 1086.91C476.133 1085.97 476.3 1085 476.3 1084C476.3 1082.9 476.096 1081.84 475.687 1080.81C475.279 1079.79 474.683 1078.88 473.9 1078.1L475.1 1076.9C476.017 1077.87 476.729 1078.96 477.237 1080.18C477.746 1081.39 478 1082.67 478 1084C478 1085.23 477.787 1086.42 477.362 1087.56C476.937 1088.7 476.317 1089.73 475.5 1090.65ZM475.775 1096.6L469 1089.83V1095H467V1087.83L463 1083.85V1084C463 1084.67 463.133 1085.3 463.4 1085.9C463.667 1086.5 464.033 1087.03 464.5 1087.5L463.3 1088.7C462.667 1088.07 462.175 1087.35 461.825 1086.55C461.475 1085.75 461.3 1084.9 461.3 1084C461.3 1083.72 461.317 1083.44 461.35 1083.18C461.383 1082.91 461.442 1082.63 461.525 1082.35L460.25 1081.08C460.067 1081.56 459.929 1082.04 459.837 1082.53C459.746 1083.01 459.7 1083.5 459.7 1084C459.7 1085.1 459.904 1086.16 460.312 1087.19C460.721 1088.21 461.317 1089.12 462.1 1089.9L460.9 1091.1C459.983 1090.13 459.271 1089.04 458.762 1087.83C458.254 1086.61 458 1085.33 458 1084C458 1083.27 458.079 1082.55 458.237 1081.84C458.396 1081.13 458.633 1080.44 458.95 1079.78L457.4 1078.23L458.8 1076.8L477.2 1095.2L475.775 1096.6Z" fill="currentColor"/>
  </g>
</svg>
