<svg xmlns="http://www.w3.org/2000/svg" viewBox="0 0 24 24" width="24" height="24" fill="currentColor">
  <g transform="translate(-659 -979)">
    <path d="M664 996.85C664.9 995.967 665.946 995.271 667.138 994.762C668.329 994.254 669.617 994 671 994C672.383 994 673.671 994.254 674.863 994.762C676.054 995.271 677.1 995.967 678 996.85V984H664V996.85ZM671 992C671.967 992 672.792 991.658 673.475 990.975C674.158 990.292 674.5 989.467 674.5 988.5C674.5 987.533 674.158 986.708 673.475 986.025C672.792 985.342 671.967 985 671 985C670.033 985 669.208 985.342 668.525 986.025C667.842 986.708 667.5 987.533 667.5 988.5C667.5 989.467 667.842 990.292 668.525 990.975C669.208 991.658 670.033 992 671 992ZM664 1000C663.45 1000 662.979 999.804 662.588 999.413C662.196 999.021 662 998.55 662 998V984C662 983.45 662.196 982.979 662.588 982.588C662.979 982.196 663.45 982 664 982H678C678.55 982 679.021 982.196 679.413 982.588C679.804 982.979 680 983.45 680 984V998C680 998.55 679.804 999.021 679.413 999.413C679.021 999.804 678.55 1000 678 1000H664ZM665.725 998H676.275C675.542 997.35 674.713 996.854 673.788 996.512C672.863 996.171 671.933 996 671 996C670.067 996 669.129 996.171 668.188 996.512C667.246 996.854 666.425 997.35 665.725 998ZM671 990C670.583 990 670.229 989.854 669.938 989.562C669.646 989.271 669.5 988.917 669.5 988.5C669.5 988.083 669.646 987.729 669.938 987.438C670.229 987.146 670.583 987 671 987C671.417 987 671.771 987.146 672.062 987.438C672.354 987.729 672.5 988.083 672.5 988.5C672.5 988.917 672.354 989.271 672.062 989.562C671.771 989.854 671.417 990 671 990Z" fill="currentColor"/>
  </g>
</svg>
