<svg xmlns="http://www.w3.org/2000/svg" viewBox="0 0 24 24" width="24" height="24" fill="currentColor">
  <g transform="translate(-285 -233)">
    <path d="M302.75 247.95L301.3 246.5C301.533 246.117 301.708 245.717 301.825 245.3C301.942 244.883 302 244.45 302 244H304C304 244.733 303.892 245.429 303.675 246.088C303.458 246.746 303.15 247.367 302.75 247.95ZM299.8 244.95L298 243.15V238C298 237.717 297.904 237.479 297.713 237.288C297.521 237.096 297.283 237 297 237C296.717 237 296.479 237.096 296.288 237.288C296.096 237.479 296 237.717 296 238V241.15L294 239.15V238C294 237.167 294.292 236.458 294.875 235.875C295.458 235.292 296.167 235 297 235C297.833 235 298.542 235.292 299.125 235.875C299.708 236.458 300 237.167 300 238V244C300 244.183 299.979 244.35 299.938 244.5C299.896 244.65 299.85 244.8 299.8 244.95ZM296 254V250.925C294.267 250.692 292.833 249.917 291.7 248.6C290.567 247.283 290 245.75 290 244H292C292 245.383 292.479 246.562 293.438 247.538C294.396 248.513 295.583 249 297 249C297.567 249 298.104 248.913 298.613 248.738C299.121 248.562 299.583 248.317 300 248L301.425 249.425C300.942 249.808 300.413 250.133 299.838 250.4C299.263 250.667 298.65 250.842 298 250.925V254H296ZM304.8 255.6L286.4 237.2L287.8 235.8L306.2 254.2L304.8 255.6Z" fill="currentColor"/>
  </g>
</svg>
