<svg xmlns="http://www.w3.org/2000/svg" viewBox="0 0 24 24" width="24" height="24" fill="currentColor">
  <g transform="translate(-486 -233)">
    <path d="M498.5 244.95C498.983 244.417 499.354 243.808 499.613 243.125C499.871 242.442 500 241.733 500 241C500 240.267 499.871 239.558 499.613 238.875C499.354 238.192 498.983 237.583 498.5 237.05C499.5 237.183 500.333 237.625 501 238.375C501.667 239.125 502 240 502 241C502 242 501.667 242.875 501 243.625C500.333 244.375 499.5 244.817 498.5 244.95ZM504 253V250C504 249.4 503.867 248.829 503.6 248.288C503.333 247.746 502.983 247.267 502.55 246.85C503.4 247.15 504.188 247.537 504.913 248.012C505.638 248.488 506 249.15 506 250V253H504ZM506 246V244H504V242H506V240H508V242H510V244H508V246H506ZM494 245C492.9 245 491.958 244.608 491.175 243.825C490.392 243.042 490 242.1 490 241C490 239.9 490.392 238.958 491.175 238.175C491.958 237.392 492.9 237 494 237C495.1 237 496.042 237.392 496.825 238.175C497.608 238.958 498 239.9 498 241C498 242.1 497.608 243.042 496.825 243.825C496.042 244.608 495.1 245 494 245ZM486 253V250.2C486 249.633 486.146 249.113 486.438 248.637C486.729 248.162 487.117 247.8 487.6 247.55C488.633 247.033 489.683 246.646 490.75 246.387C491.817 246.129 492.9 246 494 246C495.1 246 496.183 246.129 497.25 246.387C498.317 246.646 499.367 247.033 500.4 247.55C500.883 247.8 501.271 248.162 501.562 248.637C501.854 249.113 502 249.633 502 250.2V253H486ZM494 243C494.55 243 495.021 242.804 495.413 242.412C495.804 242.021 496 241.55 496 241C496 240.45 495.804 239.979 495.413 239.588C495.021 239.196 494.55 239 494 239C493.45 239 492.979 239.196 492.588 239.588C492.196 239.979 492 240.45 492 241C492 241.55 492.196 242.021 492.588 242.412C492.979 242.804 493.45 243 494 243ZM488 251H500V250.2C500 250.017 499.954 249.85 499.863 249.7C499.771 249.55 499.65 249.433 499.5 249.35C498.6 248.9 497.692 248.563 496.775 248.338C495.858 248.113 494.933 248 494 248C493.067 248 492.142 248.113 491.225 248.338C490.308 248.563 489.4 248.9 488.5 249.35C488.35 249.433 488.229 249.55 488.138 249.7C488.046 249.85 488 250.017 488 250.2V251Z" fill="currentColor"/>
  </g>
</svg>
