<svg xmlns="http://www.w3.org/2000/svg" viewBox="0 0 24 24" width="24" height="24" fill="currentColor">
  <g transform="translate(-90 -235)">
    <path d="M100 247C98.9 247 97.9583 246.608 97.175 245.825C96.3917 245.042 96 244.1 96 243C96 241.9 96.3917 240.958 97.175 240.175C97.9583 239.392 98.9 239 100 239C101.1 239 102.042 239.392 102.825 240.175C103.608 240.958 104 241.9 104 243C104 244.1 103.608 245.042 102.825 245.825C102.042 246.608 101.1 247 100 247ZM92 255V252.2C92 251.65 92.1417 251.133 92.425 250.65C92.7083 250.167 93.1 249.8 93.6 249.55C94.45 249.117 95.4083 248.75 96.475 248.45C97.5417 248.15 98.7167 248 100 248H100.35C100.45 248 100.55 248.017 100.65 248.05C100.517 248.35 100.404 248.663 100.312 248.988C100.221 249.312 100.15 249.65 100.1 250H100C98.8167 250 97.7542 250.15 96.8125 250.45C95.8708 250.75 95.1 251.05 94.5 251.35C94.35 251.433 94.2292 251.55 94.1375 251.7C94.0458 251.85 94 252.017 94 252.2V253H100.3C100.4 253.35 100.533 253.696 100.7 254.038C100.867 254.379 101.05 254.7 101.25 255H92ZM106 256L105.7 254.5C105.5 254.417 105.312 254.329 105.137 254.238C104.962 254.146 104.783 254.033 104.6 253.9L103.15 254.35L102.15 252.65L103.3 251.65C103.267 251.417 103.25 251.2 103.25 251C103.25 250.8 103.267 250.583 103.3 250.35L102.15 249.35L103.15 247.65L104.6 248.1C104.783 247.967 104.962 247.854 105.137 247.762C105.312 247.671 105.5 247.583 105.7 247.5L106 246H108L108.3 247.5C108.5 247.583 108.688 247.675 108.863 247.775C109.038 247.875 109.217 248 109.4 248.15L110.85 247.65L111.85 249.4L110.7 250.4C110.733 250.6 110.75 250.808 110.75 251.025C110.75 251.242 110.733 251.45 110.7 251.65L111.85 252.65L110.85 254.35L109.4 253.9C109.217 254.033 109.038 254.146 108.863 254.238C108.688 254.329 108.5 254.417 108.3 254.5L108 256H106ZM107 253C107.55 253 108.021 252.804 108.413 252.413C108.804 252.021 109 251.55 109 251C109 250.45 108.804 249.979 108.413 249.588C108.021 249.196 107.55 249 107 249C106.45 249 105.979 249.196 105.588 249.588C105.196 249.979 105 250.45 105 251C105 251.55 105.196 252.021 105.588 252.413C105.979 252.804 106.45 253 107 253ZM100 245C100.55 245 101.021 244.804 101.413 244.412C101.804 244.021 102 243.55 102 243C102 242.45 101.804 241.979 101.413 241.588C101.021 241.196 100.55 241 100 241C99.45 241 98.9792 241.196 98.5875 241.588C98.1958 241.979 98 242.45 98 243C98 243.55 98.1958 244.021 98.5875 244.412C98.9792 244.804 99.45 245 100 245Z" fill="currentColor"/>
  </g>
</svg>
