<svg xmlns="http://www.w3.org/2000/svg" viewBox="0 0 24 24" width="24" height="24" fill="currentColor">
  <g transform="translate(-156 -522)">
    <path d="M162 544V539.75C161.35 539.467 160.779 539.088 160.288 538.613C159.796 538.137 159.379 537.6 159.038 537C158.696 536.4 158.438 535.758 158.263 535.075C158.088 534.392 158 533.7 158 533C158 530.367 158.933 528.208 160.8 526.525C162.667 524.842 165.067 524 168 524C170.933 524 173.333 524.842 175.2 526.525C177.067 528.208 178 530.367 178 533C178 533.7 177.913 534.392 177.738 535.075C177.563 535.758 177.304 536.4 176.962 537C176.621 537.6 176.204 538.137 175.712 538.613C175.221 539.088 174.65 539.467 174 539.75V544H162ZM164 542H165V540H167V542H169V540H171V542H172V538.45C172.633 538.3 173.196 538.05 173.688 537.7C174.179 537.35 174.596 536.933 174.938 536.45C175.279 535.967 175.542 535.433 175.725 534.85C175.908 534.267 176 533.65 176 533C176 530.917 175.263 529.229 173.788 527.938C172.312 526.646 170.383 526 168 526C165.617 526 163.688 526.646 162.213 527.938C160.738 529.229 160 530.917 160 533C160 533.65 160.092 534.267 160.275 534.85C160.458 535.433 160.721 535.967 161.062 536.45C161.404 536.933 161.825 537.35 162.325 537.7C162.825 538.05 163.383 538.3 164 538.45V542ZM166.5 537H169.5L168 534L166.5 537ZM164.5 535C165.05 535 165.521 534.804 165.912 534.413C166.304 534.021 166.5 533.55 166.5 533C166.5 532.45 166.304 531.979 165.912 531.588C165.521 531.196 165.05 531 164.5 531C163.95 531 163.479 531.196 163.088 531.588C162.696 531.979 162.5 532.45 162.5 533C162.5 533.55 162.696 534.021 163.088 534.413C163.479 534.804 163.95 535 164.5 535ZM171.5 535C172.05 535 172.521 534.804 172.913 534.413C173.304 534.021 173.5 533.55 173.5 533C173.5 532.45 173.304 531.979 172.913 531.588C172.521 531.196 172.05 531 171.5 531C170.95 531 170.479 531.196 170.088 531.588C169.696 531.979 169.5 532.45 169.5 533C169.5 533.55 169.696 534.021 170.088 534.413C170.479 534.804 170.95 535 171.5 535Z" fill="currentColor"/>
  </g>
</svg>
