<svg xmlns="http://www.w3.org/2000/svg" viewBox="0 0 24 24" width="24" height="24" fill="currentColor">
  <g transform="translate(-671 -52)">
    <path d="M689 65V63H693V65H689ZM690.2 72L687 69.6L688.2 68L691.4 70.4L690.2 72ZM688.2 60L687 58.4L690.2 56L691.4 57.6L688.2 60ZM676 71V67H675C674.45 67 673.979 66.8042 673.588 66.4125C673.196 66.0208 673 65.55 673 65V63C673 62.45 673.196 61.9792 673.588 61.5875C673.979 61.1958 674.45 61 675 61H679L684 58V70L679 67H678V71H676ZM682 66.45V61.55L679.55 63H675V65H679.55L682 66.45ZM685 67.35V60.65C685.45 61.05 685.813 61.5375 686.088 62.1125C686.363 62.6875 686.5 63.3167 686.5 64C686.5 64.6833 686.363 65.3125 686.088 65.8875C685.813 66.4625 685.45 66.95 685 67.35Z" fill="currentColor"/>
  </g>
</svg>
