<svg xmlns="http://www.w3.org/2000/svg" viewBox="0 0 24 24" width="24" height="24" fill="currentColor">
  <g transform="translate(-333 -318)">
    <path d="M340 337V335H347.1C348.15 335 349.063 334.667 349.838 334C350.613 333.333 351 332.5 351 331.5C351 330.5 350.613 329.667 349.838 329C349.063 328.333 348.15 328 347.1 328H340.8L343.4 330.6L342 332L337 327L342 322L343.4 323.4L340.8 326H347.1C348.717 326 350.104 326.525 351.262 327.575C352.421 328.625 353 329.933 353 331.5C353 333.067 352.421 334.375 351.262 335.425C350.104 336.475 348.717 337 347.1 337H340Z" fill="currentColor"/>
  </g>
</svg>
