<svg xmlns="http://www.w3.org/2000/svg" viewBox="0 0 24 24" width="24" height="24" fill="currentColor">
  <g transform="translate(-388 -148)">
    <path d="M395.45 164.275L393.7 162.5C394.55 161.7 395.517 161.083 396.6 160.65C397.683 160.217 398.817 160 400 160C401.183 160 402.317 160.217 403.4 160.65C404.483 161.083 405.45 161.7 406.3 162.5L404.55 164.275C403.917 163.692 403.213 163.25 402.438 162.95C401.663 162.65 400.85 162.5 400 162.5C399.15 162.5 398.338 162.65 397.563 162.95C396.788 163.25 396.083 163.692 395.45 164.275ZM389.825 158.6L388.05 156.825C389.667 155.258 391.504 154.062 393.563 153.238C395.621 152.413 397.767 152 400 152C402.233 152 404.379 152.413 406.438 153.238C408.496 154.062 410.333 155.258 411.95 156.825L410.175 158.6C408.808 157.283 407.25 156.271 405.5 155.562C403.75 154.854 401.917 154.5 400 154.5C398.083 154.5 396.25 154.854 394.5 155.562C392.75 156.271 391.192 157.283 389.825 158.6ZM392.65 161.45L390.9 159.675C392.133 158.492 393.533 157.583 395.1 156.95C396.667 156.317 398.308 156 400.025 156C401.742 156 403.379 156.312 404.938 156.938C406.496 157.562 407.892 158.467 409.125 159.65L407.375 161.425C406.375 160.475 405.238 159.75 403.963 159.25C402.688 158.75 401.367 158.5 400 158.5C398.617 158.5 397.296 158.754 396.038 159.263C394.779 159.771 393.65 160.5 392.65 161.45ZM400 168C399.45 168 398.979 167.804 398.588 167.413C398.196 167.021 398 166.55 398 166C398 165.45 398.196 164.979 398.588 164.588C398.979 164.196 399.45 164 400 164C400.55 164 401.021 164.196 401.413 164.588C401.804 164.979 402 165.45 402 166C402 166.55 401.804 167.021 401.413 167.413C401.021 167.804 400.55 168 400 168Z" fill="currentColor"/>
  </g>
</svg>
