<svg xmlns="http://www.w3.org/2000/svg" viewBox="0 0 24 24" width="24" height="24" fill="currentColor">
  <g transform="translate(-78 -1029)">
    <path d="M88.95 1045.55L94.6 1039.9L93.175 1038.48L88.95 1042.7L86.825 1040.58L85.4 1042L88.95 1045.55ZM90 1051C88.75 1051 87.5791 1050.76 86.4875 1050.29C85.3958 1049.81 84.4458 1049.17 83.6375 1048.36C82.8291 1047.55 82.1875 1046.6 81.7125 1045.51C81.2375 1044.42 81 1043.25 81 1042C81 1040.75 81.2375 1039.58 81.7125 1038.49C82.1875 1037.4 82.8291 1036.45 83.6375 1035.64C84.4458 1034.83 85.3958 1034.19 86.4875 1033.71C87.5791 1033.24 88.75 1033 90 1033C91.25 1033 92.4208 1033.24 93.5125 1033.71C94.6041 1034.19 95.5541 1034.83 96.3625 1035.64C97.1708 1036.45 97.8125 1037.4 98.2875 1038.49C98.7625 1039.58 99 1040.75 99 1042C99 1043.25 98.7625 1044.42 98.2875 1045.51C97.8125 1046.6 97.1708 1047.55 96.3625 1048.36C95.5541 1049.17 94.6041 1049.81 93.5125 1050.29C92.4208 1050.76 91.25 1051 90 1051ZM83.6 1031.35L85 1032.75L80.75 1037L79.35 1035.6L83.6 1031.35ZM96.4 1031.35L100.65 1035.6L99.25 1037L95 1032.75L96.4 1031.35ZM90 1049C91.95 1049 93.6041 1048.32 94.9625 1046.96C96.3208 1045.6 97 1043.95 97 1042C97 1040.05 96.3208 1038.4 94.9625 1037.04C93.6041 1035.68 91.95 1035 90 1035C88.05 1035 86.3958 1035.68 85.0375 1037.04C83.6791 1038.4 83 1040.05 83 1042C83 1043.95 83.6791 1045.6 85.0375 1046.96C86.3958 1048.32 88.05 1049 90 1049Z" fill="currentColor"/>
  </g>
</svg>
