<svg xmlns="http://www.w3.org/2000/svg" viewBox="0 0 24 24" width="24" height="24" fill="currentColor">
  <g transform="translate(-443 -354)">
    <path d="M452 376L450.65 371.45C449.85 370.817 449.208 370.025 448.725 369.075C448.242 368.125 448 367.1 448 366C448 364.9 448.242 363.875 448.725 362.925C449.208 361.975 449.85 361.183 450.65 360.55L452 356H458L459.35 360.55C460.15 361.183 460.792 361.975 461.275 362.925C461.758 363.875 462 364.9 462 366C462 367.1 461.758 368.125 461.275 369.075C460.792 370.025 460.15 370.817 459.35 371.45L458 376H452ZM455 371C456.383 371 457.562 370.513 458.538 369.538C459.513 368.562 460 367.383 460 366C460 364.617 459.513 363.438 458.538 362.463C457.562 361.488 456.383 361 455 361C453.617 361 452.438 361.488 451.463 362.463C450.488 363.438 450 364.617 450 366C450 367.383 450.488 368.562 451.463 369.538C452.438 370.513 453.617 371 455 371ZM453.1 359.25C453.433 359.167 453.754 359.1 454.062 359.05C454.371 359 454.683 358.975 455 358.975C455.317 358.975 455.629 359 455.938 359.05C456.246 359.1 456.567 359.167 456.9 359.25L456.5 358H453.5L453.1 359.25ZM453.5 374H456.5L456.9 372.75C456.567 372.833 456.246 372.896 455.938 372.938C455.629 372.979 455.317 373 455 373C454.683 373 454.371 372.979 454.062 372.938C453.754 372.896 453.433 372.833 453.1 372.75L453.5 374Z" fill="currentColor"/>
  </g>
</svg>
