<svg xmlns="http://www.w3.org/2000/svg" viewBox="0 0 24 24" width="24" height="24" fill="currentColor">
  <g transform="translate(-513 -426)">
    <path d="M515 446V444H525V446H515ZM518 443C517.45 443 516.979 442.804 516.587 442.413C516.196 442.021 516 441.55 516 441V432C516 431.45 516.196 430.979 516.587 430.588C516.979 430.196 517.45 430 518 430H532C532.55 430 533.021 430.196 533.413 430.588C533.804 430.979 534 431.45 534 432H518V441H525V443H518ZM533 444V436H529V444H533ZM528.5 446C528.083 446 527.729 445.854 527.438 445.562C527.146 445.271 527 444.917 527 444.5V435.5C527 435.083 527.146 434.729 527.438 434.438C527.729 434.146 528.083 434 528.5 434H533.5C533.917 434 534.271 434.146 534.562 434.438C534.854 434.729 535 435.083 535 435.5V444.5C535 444.917 534.854 445.271 534.562 445.562C534.271 445.854 533.917 446 533.5 446H528.5ZM531 438.5C531.217 438.5 531.396 438.425 531.538 438.275C531.679 438.125 531.75 437.95 531.75 437.75C531.75 437.533 531.679 437.354 531.538 437.213C531.396 437.071 531.217 437 531 437C530.8 437 530.625 437.071 530.475 437.213C530.325 437.354 530.25 437.533 530.25 437.75C530.25 437.95 530.325 438.125 530.475 438.275C530.625 438.425 530.8 438.5 531 438.5Z" fill="currentColor"/>
  </g>
</svg>
