<svg xmlns="http://www.w3.org/2000/svg" viewBox="0 0 24 24" width="24" height="24" fill="currentColor">
  <g transform="translate(-613 -1025)">
    <path d="M619 1033H628V1031C628 1030.17 627.708 1029.46 627.125 1028.88C626.542 1028.29 625.833 1028 625 1028C624.167 1028 623.458 1028.29 622.875 1028.88C622.292 1029.46 622 1030.17 622 1031H620C620 1029.62 620.488 1028.44 621.463 1027.46C622.438 1026.49 623.617 1026 625 1026C626.383 1026 627.562 1026.49 628.538 1027.46C629.513 1028.44 630 1029.62 630 1031V1033H631C631.55 1033 632.021 1033.2 632.413 1033.59C632.804 1033.98 633 1034.45 633 1035V1045C633 1045.55 632.804 1046.02 632.413 1046.41C632.021 1046.8 631.55 1047 631 1047H619C618.45 1047 617.979 1046.8 617.588 1046.41C617.196 1046.02 617 1045.55 617 1045V1035C617 1034.45 617.196 1033.98 617.588 1033.59C617.979 1033.2 618.45 1033 619 1033ZM619 1045H631V1035H619V1045ZM625 1042C625.55 1042 626.021 1041.8 626.413 1041.41C626.804 1041.02 627 1040.55 627 1040C627 1039.45 626.804 1038.98 626.413 1038.59C626.021 1038.2 625.55 1038 625 1038C624.45 1038 623.979 1038.2 623.588 1038.59C623.196 1038.98 623 1039.45 623 1040C623 1040.55 623.196 1041.02 623.588 1041.41C623.979 1041.8 624.45 1042 625 1042Z" fill="currentColor"/>
  </g>
</svg>
