<svg xmlns="http://www.w3.org/2000/svg" viewBox="0 0 24 24" width="24" height="24" fill="currentColor">
  <g transform="translate(-253 -60)">
    <path d="M256.4 80.4L254.1 78.15C253.9 77.95 253.8 77.7167 253.8 77.45C253.8 77.1833 253.9 76.95 254.1 76.75C255.567 75.1667 257.258 73.9792 259.175 73.1875C261.092 72.3958 263.033 72 265 72C266.967 72 268.904 72.3958 270.813 73.1875C272.721 73.9792 274.417 75.1667 275.9 76.75C276.1 76.95 276.2 77.1833 276.2 77.45C276.2 77.7167 276.1 77.95 275.9 78.15L273.6 80.4C273.417 80.5833 273.204 80.6833 272.963 80.7C272.721 80.7167 272.5 80.65 272.3 80.5L269.4 78.3C269.267 78.2 269.167 78.0833 269.1 77.95C269.033 77.8167 269 77.6667 269 77.5V74.65C268.367 74.45 267.717 74.2917 267.05 74.175C266.383 74.0583 265.7 74 265 74C264.3 74 263.617 74.0583 262.95 74.175C262.283 74.2917 261.633 74.45 261 74.65V77.5C261 77.6667 260.967 77.8167 260.9 77.95C260.833 78.0833 260.733 78.2 260.6 78.3L257.7 80.5C257.5 80.65 257.279 80.7167 257.038 80.7C256.796 80.6833 256.583 80.5833 256.4 80.4ZM259 75.35C258.517 75.6 258.05 75.8875 257.6 76.2125C257.15 76.5375 256.683 76.9 256.2 77.3L257.2 78.3L259 76.9V75.35ZM271 75.4V76.9L272.8 78.3L273.8 77.35C273.317 76.9167 272.85 76.5417 272.4 76.225C271.95 75.9083 271.483 75.6333 271 75.4ZM264.95 71.35L260 66.4V69H258V63H264V65H261.4L264.925 68.525L270.575 62.875L272 64.3L264.95 71.35Z" fill="currentColor"/>
  </g>
</svg>
