<svg xmlns="http://www.w3.org/2000/svg" viewBox="0 0 24 24" width="24" height="24" fill="currentColor">
  <g transform="translate(-716 -354)">
    <path d="M722.5 370C722.917 370 723.271 369.854 723.562 369.562C723.854 369.271 724 368.917 724 368.5C724 368.083 723.854 367.729 723.562 367.438C723.271 367.146 722.917 367 722.5 367C722.083 367 721.729 367.146 721.438 367.438C721.146 367.729 721 368.083 721 368.5C721 368.917 721.146 369.271 721.438 369.562C721.729 369.854 722.083 370 722.5 370ZM731.5 370C731.917 370 732.271 369.854 732.562 369.562C732.854 369.271 733 368.917 733 368.5C733 368.083 732.854 367.729 732.562 367.438C732.271 367.146 731.917 367 731.5 367C731.083 367 730.729 367.146 730.438 367.438C730.146 367.729 730 368.083 730 368.5C730 368.917 730.146 369.271 730.438 369.562C730.729 369.854 731.083 370 731.5 370ZM719 375C718.717 375 718.479 374.904 718.287 374.712C718.096 374.521 718 374.283 718 374V366L720.1 360C720.2 359.7 720.379 359.458 720.638 359.275C720.896 359.092 721.183 359 721.5 359H731V361H721.85L720.8 364H731V366H720V371H734V366H736V374C736 374.283 735.904 374.521 735.712 374.712C735.521 374.904 735.283 375 735 375H734C733.717 375 733.479 374.904 733.288 374.712C733.096 374.521 733 374.283 733 374V373H721V374C721 374.283 720.904 374.521 720.713 374.712C720.521 374.904 720.283 375 720 375H719ZM734.65 365V361.2L732.35 363.5L731.65 362.8L734.45 360L731.65 357.2L732.35 356.5L734.65 358.8V355H735.15L738 357.9L735.85 360L738 362.15L735.15 365H734.65ZM735.65 358.8L736.6 357.9L735.65 356.95V358.8ZM735.65 363.1L736.6 362.15L735.65 361.2V363.1Z" fill="currentColor"/>
  </g>
</svg>
