<svg xmlns="http://www.w3.org/2000/svg" viewBox="0 0 24 24" width="24" height="24" fill="currentColor">
  <g transform="translate(-280 -354)">
    <path d="M294 374.725V372.675C295.5 372.242 296.708 371.408 297.625 370.175C298.542 368.942 299 367.542 299 365.975C299 364.408 298.542 363.008 297.625 361.775C296.708 360.542 295.5 359.708 294 359.275V357.225C296.067 357.692 297.75 358.738 299.05 360.363C300.35 361.988 301 363.858 301 365.975C301 368.092 300.35 369.963 299.05 371.588C297.75 373.213 296.067 374.258 294 374.725ZM283 369V363H287L292 358V374L287 369H283ZM294 370V361.95C294.783 362.317 295.396 362.867 295.838 363.6C296.279 364.333 296.5 365.133 296.5 366C296.5 366.85 296.279 367.638 295.838 368.363C295.396 369.088 294.783 369.633 294 370ZM290 362.85L287.85 365H285V367H287.85L290 369.15V362.85Z" fill="currentColor"/>
  </g>
</svg>
