<svg xmlns="http://www.w3.org/2000/svg" viewBox="0 0 24 24" width="24" height="24" fill="currentColor">
  <g transform="translate(-27 -1029)">
    <path d="M39 1051C37.6167 1051 36.3167 1050.74 35.1 1050.21C33.8833 1049.69 32.825 1048.98 31.925 1048.08C31.025 1047.18 30.3125 1046.12 29.7875 1044.9C29.2625 1043.68 29 1042.38 29 1041C29 1039.62 29.2625 1038.32 29.7875 1037.1C30.3125 1035.88 31.025 1034.82 31.925 1033.92C32.825 1033.02 33.8833 1032.31 35.1 1031.79C36.3167 1031.26 37.6167 1031 39 1031C39.7167 1031 40.4083 1031.07 41.075 1031.21C41.7417 1031.35 42.3833 1031.56 43 1031.83V1034.08C42.4167 1033.74 41.7875 1033.48 41.1125 1033.29C40.4375 1033.1 39.7333 1033 39 1033C36.7833 1033 34.8958 1033.78 33.3375 1035.34C31.7792 1036.9 31 1038.78 31 1041C31 1043.22 31.7792 1045.1 33.3375 1046.66C34.8958 1048.22 36.7833 1049 39 1049C41.2167 1049 43.1042 1048.22 44.6625 1046.66C46.2208 1045.1 47 1043.22 47 1041C47 1040.47 46.9458 1039.95 46.8375 1039.45C46.7292 1038.95 46.5833 1038.47 46.4 1038H48.55C48.7 1038.48 48.8125 1038.97 48.8875 1039.46C48.9625 1039.95 49 1040.47 49 1041C49 1042.38 48.7375 1043.68 48.2125 1044.9C47.6875 1046.12 46.975 1047.18 46.075 1048.08C45.175 1048.98 44.1167 1049.69 42.9 1050.21C41.6833 1050.74 40.3833 1051 39 1051ZM47 1036V1034H45V1032H47V1030H49V1032H51V1034H49V1036H47ZM42.5 1040C42.9167 1040 43.2708 1039.85 43.5625 1039.56C43.8542 1039.27 44 1038.92 44 1038.5C44 1038.08 43.8542 1037.73 43.5625 1037.44C43.2708 1037.15 42.9167 1037 42.5 1037C42.0833 1037 41.7292 1037.15 41.4375 1037.44C41.1458 1037.73 41 1038.08 41 1038.5C41 1038.92 41.1458 1039.27 41.4375 1039.56C41.7292 1039.85 42.0833 1040 42.5 1040ZM35.5 1040C35.9167 1040 36.2708 1039.85 36.5625 1039.56C36.8542 1039.27 37 1038.92 37 1038.5C37 1038.08 36.8542 1037.73 36.5625 1037.44C36.2708 1037.15 35.9167 1037 35.5 1037C35.0833 1037 34.7292 1037.15 34.4375 1037.44C34.1458 1037.73 34 1038.08 34 1038.5C34 1038.92 34.1458 1039.27 34.4375 1039.56C34.7292 1039.85 35.0833 1040 35.5 1040ZM39 1046.5C40.1333 1046.5 41.1625 1046.18 42.0875 1045.54C43.0125 1044.9 43.6833 1044.05 44.1 1043H33.9C34.3167 1044.05 34.9875 1044.9 35.9125 1045.54C36.8375 1046.18 37.8667 1046.5 39 1046.5Z" fill="currentColor"/>
  </g>
</svg>
