<svg xmlns="http://www.w3.org/2000/svg" viewBox="0 0 24 24" width="24" height="24" fill="currentColor">
  <g transform="translate(-201 -522)">
    <path d="M213 544C210.683 543.417 208.771 542.088 207.263 540.013C205.754 537.938 205 535.633 205 533.1V527L213 524L221 527V533.1C221 535.633 220.246 537.938 218.738 540.013C217.229 542.088 215.317 543.417 213 544ZM213 541.9C214.733 541.35 216.167 540.25 217.3 538.6C218.433 536.95 219 535.117 219 533.1V528.375L213 526.125L207 528.375V533.1C207 535.117 207.567 536.95 208.7 538.6C209.833 540.25 211.267 541.35 213 541.9Z" fill="currentColor"/>
  </g>
</svg>
