<svg xmlns="http://www.w3.org/2000/svg" viewBox="0 0 24 24" width="24" height="24" fill="currentColor">
  <g transform="translate(-457 -984)">
    <path d="M474.25 996H475.75V994.3L477.225 995.15L477.975 993.85L476.5 993L477.975 992.15L477.225 990.85L475.75 991.7V990H474.25V991.7L472.775 990.85L472.025 992.15L473.5 993L472.025 993.85L472.775 995.15L474.25 994.3V996ZM459 1005C458.45 1005 457.979 1004.8 457.588 1004.41C457.196 1004.02 457 1003.55 457 1003V989C457 988.45 457.196 987.979 457.588 987.588C457.979 987.196 458.45 987 459 987H479C479.55 987 480.021 987.196 480.413 987.588C480.804 987.979 481 988.45 481 989V1003C481 1003.55 480.804 1004.02 480.413 1004.41C480.021 1004.8 479.55 1005 479 1005H459ZM472.9 1003H479V989H459V1003H459.1C459.8 1001.75 460.767 1000.77 462 1000.06C463.233 999.354 464.567 999 466 999C467.433 999 468.767 999.354 470 1000.06C471.233 1000.77 472.2 1001.75 472.9 1003ZM466 998C466.833 998 467.542 997.708 468.125 997.125C468.708 996.542 469 995.833 469 995C469 994.167 468.708 993.458 468.125 992.875C467.542 992.292 466.833 992 466 992C465.167 992 464.458 992.292 463.875 992.875C463.292 993.458 463 994.167 463 995C463 995.833 463.292 996.542 463.875 997.125C464.458 997.708 465.167 998 466 998ZM461.55 1003H470.45C469.883 1002.37 469.212 1001.88 468.438 1001.53C467.663 1001.18 466.85 1001 466 1001C465.15 1001 464.342 1001.18 463.575 1001.53C462.808 1001.88 462.133 1002.37 461.55 1003ZM466 996C465.717 996 465.479 995.904 465.288 995.713C465.096 995.521 465 995.283 465 995C465 994.717 465.096 994.479 465.288 994.287C465.479 994.096 465.717 994 466 994C466.283 994 466.521 994.096 466.713 994.287C466.904 994.479 467 994.717 467 995C467 995.283 466.904 995.521 466.713 995.713C466.521 995.904 466.283 996 466 996Z" fill="currentColor"/>
  </g>
</svg>
