<svg xmlns="http://www.w3.org/2000/svg" viewBox="0 0 24 24" width="24" height="24" fill="currentColor">
  <g transform="translate(-297 -57)">
    <path d="M300.4 73.4L298.1 71.15C297.9 70.95 297.8 70.7167 297.8 70.45C297.8 70.1833 297.9 69.95 298.1 69.75C299.567 68.1667 301.258 66.9792 303.175 66.1875C305.092 65.3958 307.033 65 309 65C310.967 65 312.904 65.3958 314.813 66.1875C316.721 66.9792 318.417 68.1667 319.9 69.75C320.1 69.95 320.2 70.1833 320.2 70.45C320.2 70.7167 320.1 70.95 319.9 71.15L317.6 73.4C317.417 73.5833 317.204 73.6833 316.963 73.7C316.721 73.7167 316.5 73.65 316.3 73.5L313.4 71.3C313.267 71.2 313.167 71.0833 313.1 70.95C313.033 70.8167 313 70.6667 313 70.5V67.65C312.367 67.45 311.717 67.2917 311.05 67.175C310.383 67.0583 309.7 67 309 67C308.3 67 307.617 67.0583 306.95 67.175C306.283 67.2917 305.633 67.45 305 67.65V70.5C305 70.6667 304.967 70.8167 304.9 70.95C304.833 71.0833 304.733 71.2 304.6 71.3L301.7 73.5C301.5 73.65 301.279 73.7167 301.038 73.7C300.796 73.6833 300.583 73.5833 300.4 73.4ZM303 68.45C302.517 68.7 302.05 68.9875 301.6 69.3125C301.15 69.6375 300.683 70 300.2 70.4L301.2 71.4L303 70V68.45ZM315 68.5V70L316.8 71.4L317.8 70.45C317.317 70.0167 316.85 69.6417 316.4 69.325C315.95 69.0083 315.483 68.7333 315 68.5Z" fill="currentColor"/>
  </g>
</svg>
