<svg xmlns="http://www.w3.org/2000/svg" viewBox="0 0 24 24" width="24" height="24" fill="currentColor">
  <g transform="translate(-610 -354)">
    <path d="M619 375H615C614.45 375 613.979 374.804 613.588 374.413C613.196 374.021 613 373.55 613 373V366C613 364.75 613.238 363.579 613.713 362.488C614.188 361.396 614.829 360.446 615.638 359.638C616.446 358.829 617.396 358.188 618.488 357.713C619.579 357.238 620.75 357 622 357C623.25 357 624.421 357.238 625.512 357.713C626.604 358.188 627.554 358.829 628.363 359.638C629.171 360.446 629.812 361.396 630.288 362.488C630.763 363.579 631 364.75 631 366V373C631 373.55 630.804 374.021 630.413 374.413C630.021 374.804 629.55 375 629 375H625V367H629V366C629 364.05 628.321 362.396 626.963 361.037C625.604 359.679 623.95 359 622 359C620.05 359 618.396 359.679 617.037 361.037C615.679 362.396 615 364.05 615 366V367H619V375ZM617 369H615V373H617V369ZM627 369V373H629V369H627Z" fill="currentColor"/>
  </g>
</svg>
