<svg xmlns="http://www.w3.org/2000/svg" viewBox="0 0 24 24" width="24" height="24" fill="currentColor">
  <title>Encrypted voice call</title>
  <!-- Phone handset (Material call shape) -->
  <path d="M20 18.5c-1.25 0-2.45-.2-3.57-.57a1 1 0 0 0-1.02.24l-2.2 2.2A15.045 15.045 0 0 1 6.62 13.79l2.2-2.21a1 1 0 0 0 .25-1.01A11.36 11.36 0 0 1 8.5 7c0-.55-.45-1-1-1H4c-.55 0-1 .45-1 1 0 9.39 7.61 17 17 17 .55 0 1-.45 1-1v-3.5c0-.55-.45-1-1-1z"/>
  <!-- Padlock badge top-right -->
  <path d="M19 1c-1.66 0-3 1.34-3 3v2h-.5a.5.5 0 0 0-.5.5v4a.5.5 0 0 0 .5.5h7a.5.5 0 0 0 .5-.5v-4a.5.5 0 0 0-.5-.5H22V4c0-1.66-1.34-3-3-3zm-1.5 5V4a1.5 1.5 0 1 1 3 0v2h-3z"/>
</svg>
