<svg xmlns="http://www.w3.org/2000/svg" width="22.010" height="20" viewBox="0 0 22.010 20" fill="none">
  <path d="M 10.885 18 C 10.952 18 11.018 17.983 11.085 17.95 C 11.152 17.917 11.202 17.883 11.235 17.85 L 19.435 9.65 C 19.635 9.45 19.781 9.225 19.873 8.975 C 19.964 8.725 20.01 8.475 20.01 8.225 C 20.01 7.958 19.964 7.704 19.873 7.463 C 19.781 7.221 19.635 7.008 19.435 6.825 L 15.185 2.575 C 15.002 2.375 14.789 2.229 14.548 2.138 C 14.306 2.046 14.052 2 13.785 2 C 13.535 2 13.285 2.046 13.035 2.138 C 12.785 2.229 12.56 2.375 12.36 2.575 L 12.085 2.85 L 13.935 4.725 C 14.185 4.958 14.368 5.225 14.485 5.525 C 14.602 5.825 14.66 6.142 14.66 6.475 C 14.66 7.175 14.423 7.763 13.948 8.238 C 13.473 8.713 12.885 8.95 12.185 8.95 C 11.852 8.95 11.531 8.892 11.222 8.775 C 10.914 8.658 10.643 8.483 10.41 8.25 L 8.535 6.4 L 4.16 10.775 C 4.11 10.825 4.073 10.879 4.048 10.938 C 4.023 10.996 4.01 11.058 4.01 11.125 C 4.01 11.258 4.06 11.379 4.16 11.488 C 4.26 11.596 4.377 11.65 4.51 11.65 C 4.577 11.65 4.643 11.633 4.71 11.6 C 4.777 11.567 4.827 11.533 4.86 11.5 L 8.26 8.1 L 9.66 9.5 L 6.285 12.9 C 6.235 12.95 6.198 13.004 6.173 13.063 C 6.148 13.121 6.135 13.183 6.135 13.25 C 6.135 13.383 6.185 13.5 6.285 13.6 C 6.385 13.7 6.502 13.75 6.635 13.75 C 6.702 13.75 6.768 13.733 6.835 13.7 C 6.902 13.667 6.952 13.633 6.985 13.6 L 10.385 10.225 L 11.785 11.625 L 8.41 15.025 C 8.36 15.058 8.322 15.108 8.297 15.175 C 8.273 15.242 8.26 15.308 8.26 15.375 C 8.26 15.508 8.31 15.625 8.41 15.725 C 8.51 15.825 8.627 15.875 8.76 15.875 C 8.827 15.875 8.889 15.863 8.948 15.838 C 9.006 15.813 9.06 15.775 9.11 15.725 L 12.51 12.35 L 13.91 13.75 L 10.51 17.15 C 10.46 17.2 10.422 17.254 10.398 17.313 C 10.373 17.371 10.36 17.433 10.36 17.5 C 10.36 17.633 10.414 17.75 10.523 17.85 C 10.631 17.95 10.752 18 10.885 18 Z M 10.86 20 C 10.243 20 9.698 19.796 9.222 19.388 C 8.747 18.979 8.468 18.467 8.385 17.85 C 7.818 17.767 7.343 17.533 6.96 17.15 C 6.577 16.767 6.343 16.292 6.26 15.725 C 5.693 15.642 5.222 15.404 4.847 15.012 C 4.472 14.621 4.243 14.15 4.16 13.6 C 3.527 13.517 3.01 13.242 2.61 12.775 C 2.21 12.308 2.01 11.758 2.01 11.125 C 2.01 10.792 2.072 10.471 2.197 10.163 C 2.322 9.854 2.502 9.583 2.735 9.35 L 8.535 3.575 L 11.81 6.85 C 11.843 6.9 11.893 6.938 11.96 6.963 C 12.027 6.988 12.093 7 12.16 7 C 12.31 7 12.435 6.954 12.535 6.863 C 12.635 6.771 12.685 6.65 12.685 6.5 C 12.685 6.433 12.672 6.367 12.648 6.3 C 12.623 6.233 12.585 6.183 12.535 6.15 L 8.96 2.575 C 8.777 2.375 8.564 2.229 8.323 2.138 C 8.081 2.046 7.827 2 7.56 2 C 7.31 2 7.06 2.046 6.81 2.138 C 6.56 2.229 6.335 2.375 6.135 2.575 L 2.61 6.125 C 2.46 6.275 2.335 6.45 2.235 6.65 C 2.135 6.85 2.068 7.05 2.035 7.25 C 2.002 7.45 2.002 7.654 2.035 7.863 C 2.068 8.071 2.135 8.267 2.235 8.45 L 0.785 9.9 C 0.502 9.517 0.293 9.096 0.16 8.637 C 0.027 8.179 -0.023 7.717 0.01 7.25 C 0.043 6.783 0.16 6.329 0.36 5.888 C 0.56 5.446 0.835 5.05 1.185 4.7 L 4.71 1.175 C 5.11 0.792 5.556 0.5 6.048 0.3 C 6.539 0.1 7.043 0 7.56 0 C 8.077 0 8.581 0.1 9.073 0.3 C 9.564 0.5 10.002 0.792 10.385 1.175 L 10.66 1.45 L 10.935 1.175 C 11.335 0.792 11.781 0.5 12.273 0.3 C 12.764 0.1 13.268 0 13.785 0 C 14.302 0 14.806 0.1 15.298 0.3 C 15.789 0.5 16.227 0.792 16.61 1.175 L 20.835 5.4 C 21.218 5.783 21.51 6.225 21.71 6.725 C 21.91 7.225 22.01 7.733 22.01 8.25 C 22.01 8.767 21.91 9.271 21.71 9.762 C 21.51 10.254 21.218 10.692 20.835 11.075 L 12.635 19.25 C 12.402 19.483 12.131 19.667 11.823 19.8 C 11.514 19.933 11.193 20 10.86 20 Z" fill="currentColor" fill-rule="nonzero"/>
</svg>
